<mxfile host="app.diagrams.net" agent="Mozilla/5.0 (Windows NT 10.0; Win64; x64) AppleWebKit/537.36 (KHTML, like Gecko) Chrome/138.0.0.0 Safari/537.36" version="28.0.7">
  <diagram name="Page-1" id="6tFSmxkEFvi12vUp9qbe">
    <mxGraphModel dx="2893" dy="3441" grid="1" gridSize="10" guides="1" tooltips="1" connect="1" arrows="1" fold="1" page="1" pageScale="1" pageWidth="827" pageHeight="1169" math="0" shadow="0">
      <root>
        <mxCell id="0" />
        <mxCell id="1" parent="0" />
        <UserObject label="" mermaidData="{&#xa;  &quot;data&quot;: &quot;graph TD\n    A[Start ExecuteElevatorCommands] --&gt; B{For each elevator in Elevators};\n    B --&gt; C{Elevator has mechanical issue?};\n    C -- Yes --&gt; D[Log and Continue Loop];\n    C -- No --&gt; E{FireAlarmActive?};\n    E -- Yes --&gt; F[Call ApplyFireAlarmRules];\n    F --&gt; D;\n    E -- No --&gt; G{Elevator is Service &amp;&amp; Time-based feature enabled?};\n    G -- Yes --&gt; H{Call ApplyTimeBasedServiceRules};\n    H --&gt; I{FlowControl is false?};\n    I -- Yes --&gt; D;\n    I -- No --&gt; J[Continue];\n    G -- No --&gt; J;\n    J --&gt; K{Elevator should stop?};\n    K -- Yes --&gt; L[Call ApplyStopMusicRule];\n    K -- No --&gt; M[Continue];\n    L --&gt; N[Call ApplyExitPassengersRules];\n    M --&gt; N;\n    N --&gt; O[Call ApplyEnterPassengersRules];\n    O --&gt; P{Has passengers or summon requests?};\n    P -- No --&gt; Q{Call ApplyStopMusicRule};\n    P -- Yes --&gt; R[Get next destination];\n    Q --&gt; S[Get active summons];\n    S --&gt; T{Are there active summons?};\n    T -- Yes --&gt; U[Call ProcessActiveSummons];\n    T -- No --&gt; V[Set elevator to Idle and continue loop];\n    U --&gt; D;\n    V --&gt; D;\n    R --&gt; W{Is next destination different from current floor?};\n    W -- Yes --&gt; X[Determine direction and move elevator];\n    X --&gt; D;\n    W -- No --&gt; P;&quot;&#xa;}" id="CGlnuiVh3obWWgWG7OiE-1">
          <mxCell style="shape=image;noLabel=1;verticalAlign=top;imageAspect=1;image=data:image/svg+xml,PHN2ZyBhcmlhLXJvbGVkZXNjcmlwdGlvbj0iZmxvd2NoYXJ0LXYyIiByb2xlPSJncmFwaGljcy1kb2N1bWVudCBkb2N1bWVudCIgdmlld0JveD0iLTMgMCAxMjc2Ljg2NTIzNDM3NSA0MzY5LjgyODEyNSIgc3R5bGU9Im1heC13aWR0aDogMTI3Ni44NjUyMzQzNzVweDsiIGNsYXNzPSJmbG93Y2hhcnQiIHhtbG5zPSJodHRwOi8vd3d3LnczLm9yZy8yMDAwL3N2ZyIgd2lkdGg9IjEwMCUiIGlkPSJnZU1lcm1haWRPdXRwdXQtMTc1NDU5OTcxMzM3OCI+PHN0eWxlPiNnZU1lcm1haWRPdXRwdXQtMTc1NDU5OTcxMzM3OHtmb250LWZhbWlseToidHJlYnVjaGV0IG1zIix2ZXJkYW5hLGFyaWFsLHNhbnMtc2VyaWY7Zm9udC1zaXplOjE2cHg7ZmlsbDojMDAwMDAwO31Aa2V5ZnJhbWVzIGVkZ2UtYW5pbWF0aW9uLWZyYW1le2Zyb217c3Ryb2tlLWRhc2hvZmZzZXQ6MDt9fUBrZXlmcmFtZXMgZGFzaHt0b3tzdHJva2UtZGFzaG9mZnNldDowO319I2dlTWVybWFpZE91dHB1dC0xNzU0NTk5NzEzMzc4IC5lZGdlLWFuaW1hdGlvbi1zbG93e3N0cm9rZS1kYXNoYXJyYXk6OSw1IWltcG9ydGFudDtzdHJva2UtZGFzaG9mZnNldDo5MDA7YW5pbWF0aW9uOmRhc2ggNTBzIGxpbmVhciBpbmZpbml0ZTtzdHJva2UtbGluZWNhcDpyb3VuZDt9I2dlTWVybWFpZE91dHB1dC0xNzU0NTk5NzEzMzc4IC5lZGdlLWFuaW1hdGlvbi1mYXN0e3N0cm9rZS1kYXNoYXJyYXk6OSw1IWltcG9ydGFudDtzdHJva2UtZGFzaG9mZnNldDo5MDA7YW5pbWF0aW9uOmRhc2ggMjBzIGxpbmVhciBpbmZpbml0ZTtzdHJva2UtbGluZWNhcDpyb3VuZDt9I2dlTWVybWFpZE91dHB1dC0xNzU0NTk5NzEzMzc4IC5lcnJvci1pY29ue2ZpbGw6IzU1MjIyMjt9I2dlTWVybWFpZE91dHB1dC0xNzU0NTk5NzEzMzc4IC5lcnJvci10ZXh0e2ZpbGw6IzU1MjIyMjtzdHJva2U6IzU1MjIyMjt9I2dlTWVybWFpZE91dHB1dC0xNzU0NTk5NzEzMzc4IC5lZGdlLXRoaWNrbmVzcy1ub3JtYWx7c3Ryb2tlLXdpZHRoOjFweDt9I2dlTWVybWFpZE91dHB1dC0xNzU0NTk5NzEzMzc4IC5lZGdlLXRoaWNrbmVzcy10aGlja3tzdHJva2Utd2lkdGg6My41cHg7fSNnZU1lcm1haWRPdXRwdXQtMTc1NDU5OTcxMzM3OCAuZWRnZS1wYXR0ZXJuLXNvbGlke3N0cm9rZS1kYXNoYXJyYXk6MDt9I2dlTWVybWFpZE91dHB1dC0xNzU0NTk5NzEzMzc4IC5lZGdlLXRoaWNrbmVzcy1pbnZpc2libGV7c3Ryb2tlLXdpZHRoOjA7ZmlsbDpub25lO30jZ2VNZXJtYWlkT3V0cHV0LTE3NTQ1OTk3MTMzNzggLmVkZ2UtcGF0dGVybi1kYXNoZWR7c3Ryb2tlLWRhc2hhcnJheTozO30jZ2VNZXJtYWlkT3V0cHV0LTE3NTQ1OTk3MTMzNzggLmVkZ2UtcGF0dGVybi1kb3R0ZWR7c3Ryb2tlLWRhc2hhcnJheToyO30jZ2VNZXJtYWlkT3V0cHV0LTE3NTQ1OTk3MTMzNzggLm1hcmtlcntmaWxsOiM2NjY7c3Ryb2tlOiM2NjY7fSNnZU1lcm1haWRPdXRwdXQtMTc1NDU5OTcxMzM3OCAubWFya2VyLmNyb3Nze3N0cm9rZTojNjY2O30jZ2VNZXJtYWlkT3V0cHV0LTE3NTQ1OTk3MTMzNzggc3Zne2ZvbnQtZmFtaWx5OiJ0cmVidWNoZXQgbXMiLHZlcmRhbmEsYXJpYWwsc2Fucy1zZXJpZjtmb250LXNpemU6MTZweDt9I2dlTWVybWFpZE91dHB1dC0xNzU0NTk5NzEzMzc4IHB7bWFyZ2luOjA7fSNnZU1lcm1haWRPdXRwdXQtMTc1NDU5OTcxMzM3OCAubGFiZWx7Zm9udC1mYW1pbHk6InRyZWJ1Y2hldCBtcyIsdmVyZGFuYSxhcmlhbCxzYW5zLXNlcmlmO2NvbG9yOiMwMDAwMDA7fSNnZU1lcm1haWRPdXRwdXQtMTc1NDU5OTcxMzM3OCAuY2x1c3Rlci1sYWJlbCB0ZXh0e2ZpbGw6IzMzMzt9I2dlTWVybWFpZE91dHB1dC0xNzU0NTk5NzEzMzc4IC5jbHVzdGVyLWxhYmVsIHNwYW57Y29sb3I6IzMzMzt9I2dlTWVybWFpZE91dHB1dC0xNzU0NTk5NzEzMzc4IC5jbHVzdGVyLWxhYmVsIHNwYW4gcHtiYWNrZ3JvdW5kLWNvbG9yOnRyYW5zcGFyZW50O30jZ2VNZXJtYWlkT3V0cHV0LTE3NTQ1OTk3MTMzNzggLmxhYmVsIHRleHQsI2dlTWVybWFpZE91dHB1dC0xNzU0NTk5NzEzMzc4IHNwYW57ZmlsbDojMDAwMDAwO2NvbG9yOiMwMDAwMDA7fSNnZU1lcm1haWRPdXRwdXQtMTc1NDU5OTcxMzM3OCAubm9kZSByZWN0LCNnZU1lcm1haWRPdXRwdXQtMTc1NDU5OTcxMzM3OCAubm9kZSBjaXJjbGUsI2dlTWVybWFpZE91dHB1dC0xNzU0NTk5NzEzMzc4IC5ub2RlIGVsbGlwc2UsI2dlTWVybWFpZE91dHB1dC0xNzU0NTk5NzEzMzc4IC5ub2RlIHBvbHlnb24sI2dlTWVybWFpZE91dHB1dC0xNzU0NTk5NzEzMzc4IC5ub2RlIHBhdGh7ZmlsbDojZWVlO3N0cm9rZTojOTk5O3N0cm9rZS13aWR0aDoxcHg7fSNnZU1lcm1haWRPdXRwdXQtMTc1NDU5OTcxMzM3OCAucm91Z2gtbm9kZSAubGFiZWwgdGV4dCwjZ2VNZXJtYWlkT3V0cHV0LTE3NTQ1OTk3MTMzNzggLm5vZGUgLmxhYmVsIHRleHQsI2dlTWVybWFpZE91dHB1dC0xNzU0NTk5NzEzMzc4IC5pbWFnZS1zaGFwZSAubGFiZWwsI2dlTWVybWFpZE91dHB1dC0xNzU0NTk5NzEzMzc4IC5pY29uLXNoYXBlIC5sYWJlbHt0ZXh0LWFuY2hvcjptaWRkbGU7fSNnZU1lcm1haWRPdXRwdXQtMTc1NDU5OTcxMzM3OCAubm9kZSAua2F0ZXggcGF0aHtmaWxsOiMwMDA7c3Ryb2tlOiMwMDA7c3Ryb2tlLXdpZHRoOjFweDt9I2dlTWVybWFpZE91dHB1dC0xNzU0NTk5NzEzMzc4IC5yb3VnaC1ub2RlIC5sYWJlbCwjZ2VNZXJtYWlkT3V0cHV0LTE3NTQ1OTk3MTMzNzggLm5vZGUgLmxhYmVsLCNnZU1lcm1haWRPdXRwdXQtMTc1NDU5OTcxMzM3OCAuaW1hZ2Utc2hhcGUgLmxhYmVsLCNnZU1lcm1haWRPdXRwdXQtMTc1NDU5OTcxMzM3OCAuaWNvbi1zaGFwZSAubGFiZWx7dGV4dC1hbGlnbjpjZW50ZXI7fSNnZU1lcm1haWRPdXRwdXQtMTc1NDU5OTcxMzM3OCAubm9kZS5jbGlja2FibGV7Y3Vyc29yOnBvaW50ZXI7fSNnZU1lcm1haWRPdXRwdXQtMTc1NDU5OTcxMzM3OCAucm9vdCAuYW5jaG9yIHBhdGh7ZmlsbDojNjY2IWltcG9ydGFudDtzdHJva2Utd2lkdGg6MDtzdHJva2U6IzY2Njt9I2dlTWVybWFpZE91dHB1dC0xNzU0NTk5NzEzMzc4IC5hcnJvd2hlYWRQYXRoe2ZpbGw6IzMzMzMzMzt9I2dlTWVybWFpZE91dHB1dC0xNzU0NTk5NzEzMzc4IC5lZGdlUGF0aCAucGF0aHtzdHJva2U6IzY2NjtzdHJva2Utd2lkdGg6Mi4wcHg7fSNnZU1lcm1haWRPdXRwdXQtMTc1NDU5OTcxMzM3OCAuZmxvd2NoYXJ0LWxpbmt7c3Ryb2tlOiM2NjY7ZmlsbDpub25lO30jZ2VNZXJtYWlkT3V0cHV0LTE3NTQ1OTk3MTMzNzggLmVkZ2VMYWJlbHtiYWNrZ3JvdW5kLWNvbG9yOndoaXRlO3RleHQtYWxpZ246Y2VudGVyO30jZ2VNZXJtYWlkT3V0cHV0LTE3NTQ1OTk3MTMzNzggLmVkZ2VMYWJlbCBwe2JhY2tncm91bmQtY29sb3I6d2hpdGU7fSNnZU1lcm1haWRPdXRwdXQtMTc1NDU5OTcxMzM3OCAuZWRnZUxhYmVsIHJlY3R7b3BhY2l0eTowLjU7YmFja2dyb3VuZC1jb2xvcjp3aGl0ZTtmaWxsOndoaXRlO30jZ2VNZXJtYWlkT3V0cHV0LTE3NTQ1OTk3MTMzNzggLmxhYmVsQmtne2JhY2tncm91bmQtY29sb3I6cmdiYSgyNTUsIDI1NSwgMjU1LCAwLjUpO30jZ2VNZXJtYWlkT3V0cHV0LTE3NTQ1OTk3MTMzNzggLmNsdXN0ZXIgcmVjdHtmaWxsOmhzbCgwLCAwJSwgOTguOTIxNTY4NjI3NSUpO3N0cm9rZTojNzA3MDcwO3N0cm9rZS13aWR0aDoxcHg7fSNnZU1lcm1haWRPdXRwdXQtMTc1NDU5OTcxMzM3OCAuY2x1c3RlciB0ZXh0e2ZpbGw6IzMzMzt9I2dlTWVybWFpZE91dHB1dC0xNzU0NTk5NzEzMzc4IC5jbHVzdGVyIHNwYW57Y29sb3I6IzMzMzt9I2dlTWVybWFpZE91dHB1dC0xNzU0NTk5NzEzMzc4IGRpdi5tZXJtYWlkVG9vbHRpcHtwb3NpdGlvbjphYnNvbHV0ZTt0ZXh0LWFsaWduOmNlbnRlcjttYXgtd2lkdGg6MjAwcHg7cGFkZGluZzoycHg7Zm9udC1mYW1pbHk6InRyZWJ1Y2hldCBtcyIsdmVyZGFuYSxhcmlhbCxzYW5zLXNlcmlmO2ZvbnQtc2l6ZToxMnB4O2JhY2tncm91bmQ6aHNsKC0xNjAsIDAlLCA5My4zMzMzMzMzMzMzJSk7Ym9yZGVyOjFweCBzb2xpZCAjNzA3MDcwO2JvcmRlci1yYWRpdXM6MnB4O3BvaW50ZXItZXZlbnRzOm5vbmU7ei1pbmRleDoxMDA7fSNnZU1lcm1haWRPdXRwdXQtMTc1NDU5OTcxMzM3OCAuZmxvd2NoYXJ0VGl0bGVUZXh0e3RleHQtYW5jaG9yOm1pZGRsZTtmb250LXNpemU6MThweDtmaWxsOiMwMDAwMDA7fSNnZU1lcm1haWRPdXRwdXQtMTc1NDU5OTcxMzM3OCByZWN0LnRleHR7ZmlsbDpub25lO3N0cm9rZS13aWR0aDowO30jZ2VNZXJtYWlkT3V0cHV0LTE3NTQ1OTk3MTMzNzggLmljb24tc2hhcGUsI2dlTWVybWFpZE91dHB1dC0xNzU0NTk5NzEzMzc4IC5pbWFnZS1zaGFwZXtiYWNrZ3JvdW5kLWNvbG9yOndoaXRlO3RleHQtYWxpZ246Y2VudGVyO30jZ2VNZXJtYWlkT3V0cHV0LTE3NTQ1OTk3MTMzNzggLmljb24tc2hhcGUgcCwjZ2VNZXJtYWlkT3V0cHV0LTE3NTQ1OTk3MTMzNzggLmltYWdlLXNoYXBlIHB7YmFja2dyb3VuZC1jb2xvcjp3aGl0ZTtwYWRkaW5nOjJweDt9I2dlTWVybWFpZE91dHB1dC0xNzU0NTk5NzEzMzc4IC5pY29uLXNoYXBlIHJlY3QsI2dlTWVybWFpZE91dHB1dC0xNzU0NTk5NzEzMzc4IC5pbWFnZS1zaGFwZSByZWN0e29wYWNpdHk6MC41O2JhY2tncm91bmQtY29sb3I6d2hpdGU7ZmlsbDp3aGl0ZTt9I2dlTWVybWFpZE91dHB1dC0xNzU0NTk5NzEzMzc4IDpyb290ey0tbWVybWFpZC1mb250LWZhbWlseToidHJlYnVjaGV0IG1zIix2ZXJkYW5hLGFyaWFsLHNhbnMtc2VyaWY7fTwvc3R5bGU+PGc+PG1hcmtlciBvcmllbnQ9ImF1dG8iIG1hcmtlckhlaWdodD0iOCIgbWFya2VyV2lkdGg9IjgiIG1hcmtlclVuaXRzPSJ1c2VyU3BhY2VPblVzZSIgcmVmWT0iNSIgcmVmWD0iNSIgdmlld0JveD0iMCAwIDEwIDEwIiBjbGFzcz0ibWFya2VyIGZsb3djaGFydC12MiIgaWQ9ImdlTWVybWFpZE91dHB1dC0xNzU0NTk5NzEzMzc4X2Zsb3djaGFydC12Mi1wb2ludEVuZCI+PHBhdGggc3R5bGU9InN0cm9rZS13aWR0aDogMTsgc3Ryb2tlLWRhc2hhcnJheTogMSwgMDsiIGNsYXNzPSJhcnJvd01hcmtlclBhdGgiIGQ9Ik0gMCAwIEwgMTAgNSBMIDAgMTAgeiI+PC9wYXRoPjwvbWFya2VyPjxtYXJrZXIgb3JpZW50PSJhdXRvIiBtYXJrZXJIZWlnaHQ9IjgiIG1hcmtlcldpZHRoPSI4IiBtYXJrZXJVbml0cz0idXNlclNwYWNlT25Vc2UiIHJlZlk9IjUiIHJlZlg9IjQuNSIgdmlld0JveD0iMCAwIDEwIDEwIiBjbGFzcz0ibWFya2VyIGZsb3djaGFydC12MiIgaWQ9ImdlTWVybWFpZE91dHB1dC0xNzU0NTk5NzEzMzc4X2Zsb3djaGFydC12Mi1wb2ludFN0YXJ0Ij48cGF0aCBzdHlsZT0ic3Ryb2tlLXdpZHRoOiAxOyBzdHJva2UtZGFzaGFycmF5OiAxLCAwOyIgY2xhc3M9ImFycm93TWFya2VyUGF0aCIgZD0iTSAwIDUgTCAxMCAxMCBMIDEwIDAgeiI+PC9wYXRoPjwvbWFya2VyPjxtYXJrZXIgb3JpZW50PSJhdXRvIiBtYXJrZXJIZWlnaHQ9IjExIiBtYXJrZXJXaWR0aD0iMTEiIG1hcmtlclVuaXRzPSJ1c2VyU3BhY2VPblVzZSIgcmVmWT0iNSIgcmVmWD0iMTEiIHZpZXdCb3g9IjAgMCAxMCAxMCIgY2xhc3M9Im1hcmtlciBmbG93Y2hhcnQtdjIiIGlkPSJnZU1lcm1haWRPdXRwdXQtMTc1NDU5OTcxMzM3OF9mbG93Y2hhcnQtdjItY2lyY2xlRW5kIj48Y2lyY2xlIHN0eWxlPSJzdHJva2Utd2lkdGg6IDE7IHN0cm9rZS1kYXNoYXJyYXk6IDEsIDA7IiBjbGFzcz0iYXJyb3dNYXJrZXJQYXRoIiByPSI1IiBjeT0iNSIgY3g9IjUiPjwvY2lyY2xlPjwvbWFya2VyPjxtYXJrZXIgb3JpZW50PSJhdXRvIiBtYXJrZXJIZWlnaHQ9IjExIiBtYXJrZXJXaWR0aD0iMTEiIG1hcmtlclVuaXRzPSJ1c2VyU3BhY2VPblVzZSIgcmVmWT0iNSIgcmVmWD0iLTEiIHZpZXdCb3g9IjAgMCAxMCAxMCIgY2xhc3M9Im1hcmtlciBmbG93Y2hhcnQtdjIiIGlkPSJnZU1lcm1haWRPdXRwdXQtMTc1NDU5OTcxMzM3OF9mbG93Y2hhcnQtdjItY2lyY2xlU3RhcnQiPjxjaXJjbGUgc3R5bGU9InN0cm9rZS13aWR0aDogMTsgc3Ryb2tlLWRhc2hhcnJheTogMSwgMDsiIGNsYXNzPSJhcnJvd01hcmtlclBhdGgiIHI9IjUiIGN5PSI1IiBjeD0iNSI+PC9jaXJjbGU+PC9tYXJrZXI+PG1hcmtlciBvcmllbnQ9ImF1dG8iIG1hcmtlckhlaWdodD0iMTEiIG1hcmtlcldpZHRoPSIxMSIgbWFya2VyVW5pdHM9InVzZXJTcGFjZU9uVXNlIiByZWZZPSI1LjIiIHJlZlg9IjEyIiB2aWV3Qm94PSIwIDAgMTEgMTEiIGNsYXNzPSJtYXJrZXIgY3Jvc3MgZmxvd2NoYXJ0LXYyIiBpZD0iZ2VNZXJtYWlkT3V0cHV0LTE3NTQ1OTk3MTMzNzhfZmxvd2NoYXJ0LXYyLWNyb3NzRW5kIj48cGF0aCBzdHlsZT0ic3Ryb2tlLXdpZHRoOiAyOyBzdHJva2UtZGFzaGFycmF5OiAxLCAwOyIgY2xhc3M9ImFycm93TWFya2VyUGF0aCIgZD0iTSAxLDEgbCA5LDkgTSAxMCwxIGwgLTksOSI+PC9wYXRoPjwvbWFya2VyPjxtYXJrZXIgb3JpZW50PSJhdXRvIiBtYXJrZXJIZWlnaHQ9IjExIiBtYXJrZXJXaWR0aD0iMTEiIG1hcmtlclVuaXRzPSJ1c2VyU3BhY2VPblVzZSIgcmVmWT0iNS4yIiByZWZYPSItMSIgdmlld0JveD0iMCAwIDExIDExIiBjbGFzcz0ibWFya2VyIGNyb3NzIGZsb3djaGFydC12MiIgaWQ9ImdlTWVybWFpZE91dHB1dC0xNzU0NTk5NzEzMzc4X2Zsb3djaGFydC12Mi1jcm9zc1N0YXJ0Ij48cGF0aCBzdHlsZT0ic3Ryb2tlLXdpZHRoOiAyOyBzdHJva2UtZGFzaGFycmF5OiAxLCAwOyIgY2xhc3M9ImFycm93TWFya2VyUGF0aCIgZD0iTSAxLDEgbCA5LDkgTSAxMCwxIGwgLTksOSI+PC9wYXRoPjwvbWFya2VyPjxnIGNsYXNzPSJyb290Ij48ZyBjbGFzcz0iY2x1c3RlcnMiPjwvZz48ZyBjbGFzcz0iZWRnZVBhdGhzIj48cGF0aCBtYXJrZXItZW5kPSJ1cmwoI2dlTWVybWFpZE91dHB1dC0xNzU0NTk5NzEzMzc4X2Zsb3djaGFydC12Mi1wb2ludEVuZCkiIHN0eWxlPSIiIGNsYXNzPSJlZGdlLXRoaWNrbmVzcy1ub3JtYWwgZWRnZS1wYXR0ZXJuLXNvbGlkIGVkZ2UtdGhpY2tuZXNzLW5vcm1hbCBlZGdlLXBhdHRlcm4tc29saWQgZmxvd2NoYXJ0LWxpbmsiIGlkPSJMX0FfQl8wIiBkPSJNNTQ1LjgyOCw4Nkw1NDUuODI4LDkwLjE2N0M1NDUuODI4LDk0LjMzMyw1NDUuODI4LDEwMi42NjcsNTQ1Ljg5OCwxMTAuNDE3QzU0NS45NjksMTE4LjE2Nyw1NDYuMTA5LDEyNS4zMzQsNTQ2LjE3OSwxMjguOTE3TDU0Ni4yNSwxMzIuNTAxIj48L3BhdGg+PHBhdGggbWFya2VyLWVuZD0idXJsKCNnZU1lcm1haWRPdXRwdXQtMTc1NDU5OTcxMzM3OF9mbG93Y2hhcnQtdjItcG9pbnRFbmQpIiBzdHlsZT0iIiBjbGFzcz0iZWRnZS10aGlja25lc3Mtbm9ybWFsIGVkZ2UtcGF0dGVybi1zb2xpZCBlZGdlLXRoaWNrbmVzcy1ub3JtYWwgZWRnZS1wYXR0ZXJuLXNvbGlkIGZsb3djaGFydC1saW5rIiBpZD0iTF9CX0NfMCIgZD0iTTU0Ni4zMjgsNDE0LjVMNTQ2LjI0NSw0MTguNTgzQzU0Ni4xNjEsNDIyLjY2Nyw1NDUuOTk1LDQzMC44MzMsNTQ1Ljk4Miw0MzguNUM1NDUuOTY5LDQ0Ni4xNjcsNTQ2LjEwOSw0NTMuMzM0LDU0Ni4xNzksNDU2LjkxN0w1NDYuMjUsNDYwLjUwMSI+PC9wYXRoPjxwYXRoIG1hcmtlci1lbmQ9InVybCgjZ2VNZXJtYWlkT3V0cHV0LTE3NTQ1OTk3MTMzNzhfZmxvd2NoYXJ0LXYyLXBvaW50RW5kKSIgc3R5bGU9IiIgY2xhc3M9ImVkZ2UtdGhpY2tuZXNzLW5vcm1hbCBlZGdlLXBhdHRlcm4tc29saWQgZWRnZS10aGlja25lc3Mtbm9ybWFsIGVkZ2UtcGF0dGVybi1zb2xpZCBmbG93Y2hhcnQtbGluayIgaWQ9IkxfQ19EXzAiIGQ9Ik00NDIuMjE1LDYzOC4zODdMMzcyLjE5NCw2NjEuNzM5QzMwMi4xNzIsNjg1LjA5MSwxNjIuMTI5LDczMS43OTYsOTIuMTA3LDc3NS43ODdDMjIuMDg2LDgxOS43NzksMjIuMDg2LDg2MS4wNTcsMjIuMDg2LDkwMi4zMzZDMjIuMDg2LDk0My42MTUsMjIuMDg2LDk4NC44OTMsMjIuMDg2LDEwMzYuNzgzQzIyLjA4NiwxMDg4LjY3MiwyMi4wODYsMTE1MS4xNzIsMjIuMDg2LDEyMTMuNjcyQzIyLjA4NiwxMjc2LjE3MiwyMi4wODYsMTMzOC42NzIsMjIuMDg2LDEzOTkuNjU5QzIyLjA4NiwxNDYwLjY0NiwyMi4wODYsMTUyMC4xMiwyMi4wODYsMTU3OS41OTRDMjIuMDg2LDE2MzkuMDY4LDIyLjA4NiwxNjk4LjU0MiwyMi4wODYsMTc1MS4xMjZDMjIuMDg2LDE4MDMuNzExLDIyLjA4NiwxODQ5LjQwNiwyMi4wODYsMTg5NS4xMDJDMjIuMDg2LDE5NDAuNzk3LDIyLjA4NiwxOTg2LjQ5MiwyMi4wODYsMjAxOS45MjNDMjIuMDg2LDIwNTMuMzU0LDIyLjA4NiwyMDc0LjUyMSwyMi4wODYsMjA5My43NzFDMjIuMDg2LDIxMTMuMDIxLDIyLjA4NiwyMTMwLjM1NCwyMi4wODYsMjE2MC4zMDZDMjIuMDg2LDIxOTAuMjU4LDIyLjA4NiwyMjMyLjgyOCwyMi4wODYsMjI3Ny4zMTVDMjIuMDg2LDIzMjEuODAyLDIyLjA4NiwyMzY4LjIwNiwyMi4wODYsMjQwMS45OTFDMjIuMDg2LDI0MzUuNzc2LDIyLjA4NiwyNDU2Ljk0MywyMi4wODYsMjQ3OC4xMDlDMjIuMDg2LDI0OTkuMjc2LDIyLjA4NiwyNTIwLjQ0MywyMi4wODYsMjU0My42MDlDMjIuMDg2LDI1NjYuNzc2LDIyLjA4NiwyNTkxLjk0MywyMi4wODYsMjYxNS4xOTNDMjIuMDg2LDI2MzguNDQzLDIyLjA4NiwyNjU5Ljc3NiwyMi4wODYsMjY4MS4xMDlDMjIuMDg2LDI3MDIuNDQzLDIyLjA4NiwyNzIzLjc3NiwyMi4wODYsMjc0Ny4wMjZDMjIuMDg2LDI3NzAuMjc2LDIyLjA4NiwyNzk1LjQ0MywyMi4wODYsMjgzNy4yNzZDMjIuMDg2LDI4NzkuMTA5LDIyLjA4NiwyOTM3LjYwOSwyMi4wODYsMjk5Ni4xMDlDMjIuMDg2LDMwNTQuNjA5LDIyLjA4NiwzMTEzLjEwOSwyMi4wODYsMzE2Ny4zNDhDMjIuMDg2LDMyMjEuNTg2LDIyLjA4NiwzMjcxLjU2MywyMi4wODYsMzMxOS42MjJDMjIuMDg2LDMzNjcuNjgyLDIyLjA4NiwzNDEzLjgyNiwyMi4wODYsMzQ2Ni4yM0MyMi4wODYsMzUxOC42MzUsMjIuMDg2LDM1NzcuMzAyLDIyLjA4NiwzNjM3Ljg4NUMyMi4wODYsMzY5OC40NjksMjIuMDg2LDM3NjAuOTY5LDIyLjA4NiwzODE4Ljg3NEMyMi4wODYsMzg3Ni43NzksMjIuMDg2LDM5MzAuMDg5LDIyLjA4NiwzOTgzLjM5OEMyMi4wODYsNDAzNi43MDgsMjIuMDg2LDQwOTAuMDE4LDIyLjA4Niw0MTI5LjI1N0MyMi4wODYsNDE2OC40OTUsMjIuMDg2LDQxOTMuNjYxLDIyLjA4Niw0MjE2LjkxMUMyMi4wODYsNDI0MC4xNjEsMjIuMDg2LDQyNjEuNDk1LDcwLjQ5Niw0Mjc4LjM1OUMxMTguOTA1LDQyOTUuMjI0LDIxNS43MjUsNDMwNy42MiwyNjQuMTM0LDQzMTMuODE4TDMxMi41NDQsNDMyMC4wMTYiPjwvcGF0aD48cGF0aCBtYXJrZXItZW5kPSJ1cmwoI2dlTWVybWFpZE91dHB1dC0xNzU0NTk5NzEzMzc4X2Zsb3djaGFydC12Mi1wb2ludEVuZCkiIHN0eWxlPSIiIGNsYXNzPSJlZGdlLXRoaWNrbmVzcy1ub3JtYWwgZWRnZS1wYXR0ZXJuLXNvbGlkIGVkZ2UtdGhpY2tuZXNzLW5vcm1hbCBlZGdlLXBhdHRlcm4tc29saWQgZmxvd2NoYXJ0LWxpbmsiIGlkPSJMX0NfRV8wIiBkPSJNNTg4Ljc4NSw3MDAuMDQzTDU5NC40ODksNzEzLjExOUM2MDAuMTkzLDcyNi4xOTUsNjExLjYsNzUyLjM0OCw2MTcuMzc4LDc3MC45MjRDNjIzLjE1Niw3ODkuNSw2MjMuMzA1LDgwMC41LDYyMy4zNzksODA2TDYyMy40NTQsODExLjUiPjwvcGF0aD48cGF0aCBtYXJrZXItZW5kPSJ1cmwoI2dlTWVybWFpZE91dHB1dC0xNzU0NTk5NzEzMzc4X2Zsb3djaGFydC12Mi1wb2ludEVuZCkiIHN0eWxlPSIiIGNsYXNzPSJlZGdlLXRoaWNrbmVzcy1ub3JtYWwgZWRnZS1wYXR0ZXJuLXNvbGlkIGVkZ2UtdGhpY2tuZXNzLW5vcm1hbCBlZGdlLXBhdHRlcm4tc29saWQgZmxvd2NoYXJ0LWxpbmsiIGlkPSJMX0VfRl8wIiBkPSJNNTU1LjEzMyw5MjEuNzk3TDQ5Mi4wMTgsOTM5LjE5M0M0MjguOTA0LDk1Ni41ODksMzAyLjY3NSw5OTEuMzgsMjM5LjU2LDEwNDAuMDI2QzE3Ni40NDUsMTA4OC42NzIsMTc2LjQ0NSwxMTUxLjE3MiwxNzYuNDQ1LDEyMTMuNjcyQzE3Ni40NDUsMTI3Ni4xNzIsMTc2LjQ0NSwxMzM4LjY3MiwxNzYuNDQ1LDEzOTkuNjU5QzE3Ni40NDUsMTQ2MC42NDYsMTc2LjQ0NSwxNTIwLjEyLDE3Ni40NDUsMTU3OS41OTRDMTc2LjQ0NSwxNjM5LjA2OCwxNzYuNDQ1LDE2OTguNTQyLDE3Ni40NDUsMTc1MS4xMjZDMTc2LjQ0NSwxODAzLjcxMSwxNzYuNDQ1LDE4NDkuNDA2LDE3Ni40NDUsMTg5NS4xMDJDMTc2LjQ0NSwxOTQwLjc5NywxNzYuNDQ1LDE5ODYuNDkyLDE3Ni40NDUsMjAxOS45MjNDMTc2LjQ0NSwyMDUzLjM1NCwxNzYuNDQ1LDIwNzQuNTIxLDE3Ni40NDUsMjA5My43NzFDMTc2LjQ0NSwyMTEzLjAyMSwxNzYuNDQ1LDIxMzAuMzU0LDE3Ni40NDUsMjE2MC4zMDZDMTc2LjQ0NSwyMTkwLjI1OCwxNzYuNDQ1LDIyMzIuODI4LDE3Ni40NDUsMjI3Ny4zMTVDMTc2LjQ0NSwyMzIxLjgwMiwxNzYuNDQ1LDIzNjguMjA2LDE3Ni40NDUsMjQwMS45OTFDMTc2LjQ0NSwyNDM1Ljc3NiwxNzYuNDQ1LDI0NTYuOTQzLDE3Ni40NDUsMjQ3OC4xMDlDMTc2LjQ0NSwyNDk5LjI3NiwxNzYuNDQ1LDI1MjAuNDQzLDE3Ni40NDUsMjU0My42MDlDMTc2LjQ0NSwyNTY2Ljc3NiwxNzYuNDQ1LDI1OTEuOTQzLDE3Ni40NDUsMjYxNS4xOTNDMTc2LjQ0NSwyNjM4LjQ0MywxNzYuNDQ1LDI2NTkuNzc2LDE3Ni40NDUsMjY4MS4xMDlDMTc2LjQ0NSwyNzAyLjQ0MywxNzYuNDQ1LDI3MjMuNzc2LDE3Ni40NDUsMjc0Ny4wMjZDMTc2LjQ0NSwyNzcwLjI3NiwxNzYuNDQ1LDI3OTUuNDQzLDE3Ni40NDUsMjgzNy4yNzZDMTc2LjQ0NSwyODc5LjEwOSwxNzYuNDQ1LDI5MzcuNjA5LDE3Ni40NDUsMjk5Ni4xMDlDMTc2LjQ0NSwzMDU0LjYwOSwxNzYuNDQ1LDMxMTMuMTA5LDE3Ni40NDUsMzE2Ny4zNDhDMTc2LjQ0NSwzMjIxLjU4NiwxNzYuNDQ1LDMyNzEuNTYzLDE3Ni40NDUsMzMxOS42MjJDMTc2LjQ0NSwzMzY3LjY4MiwxNzYuNDQ1LDM0MTMuODI2LDE3Ni40NDUsMzQ2Ni4yM0MxNzYuNDQ1LDM1MTguNjM1LDE3Ni40NDUsMzU3Ny4zMDIsMTc2LjQ0NSwzNjM3Ljg4NUMxNzYuNDQ1LDM2OTguNDY5LDE3Ni40NDUsMzc2MC45NjksMTc2LjQ0NSwzODE4Ljg3NEMxNzYuNDQ1LDM4NzYuNzc5LDE3Ni40NDUsMzkzMC4wODksMTc2LjQ0NSwzOTgzLjM5OEMxNzYuNDQ1LDQwMzYuNzA4LDE3Ni40NDUsNDA5MC4wMTgsMTc2LjQ0NSw0MTI0LjA5QzE3Ni40NDUsNDE1OC4xNjEsMTc2LjQ0NSw0MTcyLjk5NSwxNzYuNDQ1LDQxODAuNDExTDE3Ni40NDUsNDE4Ny44MjgiPjwvcGF0aD48cGF0aCBtYXJrZXItZW5kPSJ1cmwoI2dlTWVybWFpZE91dHB1dC0xNzU0NTk5NzEzMzc4X2Zsb3djaGFydC12Mi1wb2ludEVuZCkiIHN0eWxlPSIiIGNsYXNzPSJlZGdlLXRoaWNrbmVzcy1ub3JtYWwgZWRnZS1wYXR0ZXJuLXNvbGlkIGVkZ2UtdGhpY2tuZXNzLW5vcm1hbCBlZGdlLXBhdHRlcm4tc29saWQgZmxvd2NoYXJ0LWxpbmsiIGlkPSJMX0ZfRF8wIiBkPSJNMTc2LjQ0NSw0MjQ1LjgyOEwxNzYuNDQ1LDQyNTEuOTk1QzE3Ni40NDUsNDI1OC4xNjEsMTc2LjQ0NSw0MjcwLjQ5NSwxOTkuMTM3LDQyODEuMzQ4QzIyMS44MjgsNDI5Mi4yMDEsMjY3LjIxMSw0MzAxLjU3MywyODkuOTAzLDQzMDYuMjU5TDMxMi41OTQsNDMxMC45NDUiPjwvcGF0aD48cGF0aCBtYXJrZXItZW5kPSJ1cmwoI2dlTWVybWFpZE91dHB1dC0xNzU0NTk5NzEzMzc4X2Zsb3djaGFydC12Mi1wb2ludEVuZCkiIHN0eWxlPSIiIGNsYXNzPSJlZGdlLXRoaWNrbmVzcy1ub3JtYWwgZWRnZS1wYXR0ZXJuLXNvbGlkIGVkZ2UtdGhpY2tuZXNzLW5vcm1hbCBlZGdlLXBhdHRlcm4tc29saWQgZmxvd2NoYXJ0LWxpbmsiIGlkPSJMX0VfR18wIiBkPSJNNjYwLjk2Niw5NTIuNzE0TDY3MC4xMzksOTY0Ljk1N0M2NzkuMzEzLDk3Ny4yLDY5Ny42NiwxMDAxLjY4Niw3MDYuOTA4LDEwMTkuNDI5QzcxNi4xNTYsMTAzNy4xNzIsNzE2LjMwNSwxMDQ4LjE3Miw3MTYuMzc5LDEwNTMuNjcyTDcxNi40NTQsMTA1OS4xNzIiPjwvcGF0aD48cGF0aCBtYXJrZXItZW5kPSJ1cmwoI2dlTWVybWFpZE91dHB1dC0xNzU0NTk5NzEzMzc4X2Zsb3djaGFydC12Mi1wb2ludEVuZCkiIHN0eWxlPSIiIGNsYXNzPSJlZGdlLXRoaWNrbmVzcy1ub3JtYWwgZWRnZS1wYXR0ZXJuLXNvbGlkIGVkZ2UtdGhpY2tuZXNzLW5vcm1hbCBlZGdlLXBhdHRlcm4tc29saWQgZmxvd2NoYXJ0LWxpbmsiIGlkPSJMX0dfSF8wIiBkPSJNNjE3LjgzNCwxMjY2LjQ5OEw1NzUuMjY2LDEyODguOTQzQzUzMi42OTgsMTMxMS4zODksNDQ3LjU2MywxMzU2LjI4MSw0MDUuMDcsMTM4NC4yMjZDMzYyLjU3NiwxNDEyLjE3MiwzNjIuNzI1LDE0MjMuMTcyLDM2Mi43OTksMTQyOC42NzJMMzYyLjg3NCwxNDM0LjE3MiI+PC9wYXRoPjxwYXRoIG1hcmtlci1lbmQ9InVybCgjZ2VNZXJtYWlkT3V0cHV0LTE3NTQ1OTk3MTMzNzhfZmxvd2NoYXJ0LXYyLXBvaW50RW5kKSIgc3R5bGU9IiIgY2xhc3M9ImVkZ2UtdGhpY2tuZXNzLW5vcm1hbCBlZGdlLXBhdHRlcm4tc29saWQgZWRnZS10aGlja25lc3Mtbm9ybWFsIGVkZ2UtcGF0dGVybi1zb2xpZCBmbG93Y2hhcnQtbGluayIgaWQ9IkxfSF9JXzAiIGQ9Ik0zNjIuOTI4LDE3MjIuMDE2TDM2Mi44NDQsMTcyOC4wMTZDMzYyLjc2MSwxNzM0LjAxNiwzNjIuNTk0LDE3NDYuMDE2LDM2Mi41ODUsMTc1Ny41MTZDMzYyLjU3NiwxNzY5LjAxNiwzNjIuNzI1LDE3ODAuMDE2LDM2Mi43OTksMTc4NS41MTZMMzYyLjg3NCwxNzkxLjAxNiI+PC9wYXRoPjxwYXRoIG1hcmtlci1lbmQ9InVybCgjZ2VNZXJtYWlkT3V0cHV0LTE3NTQ1OTk3MTMzNzhfZmxvd2NoYXJ0LXYyLXBvaW50RW5kKSIgc3R5bGU9IiIgY2xhc3M9ImVkZ2UtdGhpY2tuZXNzLW5vcm1hbCBlZGdlLXBhdHRlcm4tc29saWQgZWRnZS10aGlja25lc3Mtbm9ybWFsIGVkZ2UtcGF0dGVybi1zb2xpZCBmbG93Y2hhcnQtbGluayIgaWQ9IkxfSV9EXzAiIGQ9Ik0zNTIuNTMxLDE5ODUuNzkxTDM1MS41NDcsMTk5My41MjRDMzUwLjU2MiwyMDAxLjI1NiwzNDguNTk0LDIwMTYuNzIyLDM0Ny42MDksMjAzNS4wMzhDMzQ2LjYyNSwyMDUzLjM1NCwzNDYuNjI1LDIwNzQuNTIxLDM0Ni42MjUsMjA5My43NzFDMzQ2LjYyNSwyMTEzLjAyMSwzNDYuNjI1LDIxMzAuMzU0LDM0Ni42MjUsMjE2MC4zMDZDMzQ2LjYyNSwyMTkwLjI1OCwzNDYuNjI1LDIyMzIuODI4LDM0Ni42MjUsMjI3Ny4zMTVDMzQ2LjYyNSwyMzIxLjgwMiwzNDYuNjI1LDIzNjguMjA2LDM0Ni42MjUsMjQwMS45OTFDMzQ2LjYyNSwyNDM1Ljc3NiwzNDYuNjI1LDI0NTYuOTQzLDM0Ni42MjUsMjQ3OC4xMDlDMzQ2LjYyNSwyNDk5LjI3NiwzNDYuNjI1LDI1MjAuNDQzLDM0Ni42MjUsMjU0My42MDlDMzQ2LjYyNSwyNTY2Ljc3NiwzNDYuNjI1LDI1OTEuOTQzLDM0Ni42MjUsMjYxNS4xOTNDMzQ2LjYyNSwyNjM4LjQ0MywzNDYuNjI1LDI2NTkuNzc2LDM0Ni42MjUsMjY4MS4xMDlDMzQ2LjYyNSwyNzAyLjQ0MywzNDYuNjI1LDI3MjMuNzc2LDM0Ni42MjUsMjc0Ny4wMjZDMzQ2LjYyNSwyNzcwLjI3NiwzNDYuNjI1LDI3OTUuNDQzLDM0Ni42MjUsMjgzNy4yNzZDMzQ2LjYyNSwyODc5LjEwOSwzNDYuNjI1LDI5MzcuNjA5LDM0Ni42MjUsMjk5Ni4xMDlDMzQ2LjYyNSwzMDU0LjYwOSwzNDYuNjI1LDMxMTMuMTA5LDM0Ni42MjUsMzE2Ny4zNDhDMzQ2LjYyNSwzMjIxLjU4NiwzNDYuNjI1LDMyNzEuNTYzLDM0Ni42MjUsMzMxOS42MjJDMzQ2LjYyNSwzMzY3LjY4MiwzNDYuNjI1LDM0MTMuODI2LDM0Ni42MjUsMzQ2Ni4yM0MzNDYuNjI1LDM1MTguNjM1LDM0Ni42MjUsMzU3Ny4zMDIsMzQ2LjYyNSwzNjM3Ljg4NUMzNDYuNjI1LDM2OTguNDY5LDM0Ni42MjUsMzc2MC45NjksMzQ2LjYyNSwzODE4Ljg3NEMzNDYuNjI1LDM4NzYuNzc5LDM0Ni42MjUsMzkzMC4wODksMzQ2LjYyNSwzOTgzLjM5OEMzNDYuNjI1LDQwMzYuNzA4LDM0Ni42MjUsNDA5MC4wMTgsMzQ2LjYyNSw0MTI5LjI1N0MzNDYuNjI1LDQxNjguNDk1LDM0Ni42MjUsNDE5My42NjEsMzQ2LjYyNSw0MjE2LjkxMUMzNDYuNjI1LDQyNDAuMTYxLDM0Ni42MjUsNDI2MS40OTUsMzUyLjYwMiw0Mjc1Ljk3QzM1OC41OCw0MjkwLjQ0NSwzNzAuNTM0LDQyOTguMDYyLDM3Ni41MTEsNDMwMS44N0wzODIuNDg5LDQzMDUuNjc5Ij48L3BhdGg+PHBhdGggbWFya2VyLWVuZD0idXJsKCNnZU1lcm1haWRPdXRwdXQtMTc1NDU5OTcxMzM3OF9mbG93Y2hhcnQtdjItcG9pbnRFbmQpIiBzdHlsZT0iIiBjbGFzcz0iZWRnZS10aGlja25lc3Mtbm9ybWFsIGVkZ2UtcGF0dGVybi1zb2xpZCBlZGdlLXRoaWNrbmVzcy1ub3JtYWwgZWRnZS1wYXR0ZXJuLXNvbGlkIGZsb3djaGFydC1saW5rIiBpZD0iTF9JX0pfMCIgZD0iTTQwMS45OCwxOTU3LjEzNkw0MDkuODg4LDE5NjkuNjQ0QzQxNy43OTYsMTk4Mi4xNTMsNDMzLjYxMiwyMDA3LjE3LDUyNy45OSwyMDI5LjA2OEM2MjIuMzY4LDIwNTAuOTY2LDc5NS4zMDksMjA2OS43NDQsODgxLjc4LDIwNzkuMTM0TDk2OC4yNSwyMDg4LjUyMyI+PC9wYXRoPjxwYXRoIG1hcmtlci1lbmQ9InVybCgjZ2VNZXJtYWlkT3V0cHV0LTE3NTQ1OTk3MTMzNzhfZmxvd2NoYXJ0LXYyLXBvaW50RW5kKSIgc3R5bGU9IiIgY2xhc3M9ImVkZ2UtdGhpY2tuZXNzLW5vcm1hbCBlZGdlLXBhdHRlcm4tc29saWQgZWRnZS10aGlja25lc3Mtbm9ybWFsIGVkZ2UtcGF0dGVybi1zb2xpZCBmbG93Y2hhcnQtbGluayIgaWQ9IkxfR19KXzAiIGQ9Ik04MTMuMjIsMTI2OC40NTlMODUyLjY5LDEyOTAuNTc4Qzg5Mi4xNTksMTMxMi42OTcsOTcxLjA5OCwxMzU2LjkzNCwxMDEwLjU2OCwxNDA4Ljc5QzEwNTAuMDM3LDE0NjAuNjQ2LDEwNTAuMDM3LDE1MjAuMTIsMTA1MC4wMzcsMTU3OS41OTRDMTA1MC4wMzcsMTYzOS4wNjgsMTA1MC4wMzcsMTY5OC41NDIsMTA1MC4wMzcsMTc1MS4xMjZDMTA1MC4wMzcsMTgwMy43MTEsMTA1MC4wMzcsMTg0OS40MDYsMTA1MC4wMzcsMTg5NS4xMDJDMTA1MC4wMzcsMTk0MC43OTcsMTA1MC4wMzcsMTk4Ni40OTIsMTA0OC42ODQsMjAxNC43NzZDMTA0Ny4zMzEsMjA0My4wNiwxMDQ0LjYyNSwyMDUzLjkzMywxMDQzLjI3MywyMDU5LjM2OUwxMDQxLjkyLDIwNjQuODA2Ij48L3BhdGg+PHBhdGggbWFya2VyLWVuZD0idXJsKCNnZU1lcm1haWRPdXRwdXQtMTc1NDU5OTcxMzM3OF9mbG93Y2hhcnQtdjItcG9pbnRFbmQpIiBzdHlsZT0iIiBjbGFzcz0iZWRnZS10aGlja25lc3Mtbm9ybWFsIGVkZ2UtcGF0dGVybi1zb2xpZCBlZGdlLXRoaWNrbmVzcy1ub3JtYWwgZWRnZS1wYXR0ZXJuLXNvbGlkIGZsb3djaGFydC1saW5rIiBpZD0iTF9KX0tfMCIgZD0iTTEwMzQuMjM0LDIxMjIuNjg4TDEwMzQuMjM0LDIxMjYuODU0QzEwMzQuMjM0LDIxMzEuMDIxLDEwMzQuMjM0LDIxMzkuMzU0LDEwMzQuMzA1LDIxNDcuMTA0QzEwMzQuMzc1LDIxNTQuODU0LDEwMzQuNTE1LDIxNjIuMDIxLDEwMzQuNTg2LDIxNjUuNjA1TDEwMzQuNjU2LDIxNjkuMTg4Ij48L3BhdGg+PHBhdGggbWFya2VyLWVuZD0idXJsKCNnZU1lcm1haWRPdXRwdXQtMTc1NDU5OTcxMzM3OF9mbG93Y2hhcnQtdjItcG9pbnRFbmQpIiBzdHlsZT0iIiBjbGFzcz0iZWRnZS10aGlja25lc3Mtbm9ybWFsIGVkZ2UtcGF0dGVybi1zb2xpZCBlZGdlLXRoaWNrbmVzcy1ub3JtYWwgZWRnZS1wYXR0ZXJuLXNvbGlkIGZsb3djaGFydC1saW5rIiBpZD0iTF9LX0xfMCIgZD0iTTk1My41NTQsMjI5Ny40MjlMODc5LjUxOCwyMzE2Ljk1OUM4MDUuNDgzLDIzMzYuNDg5LDY1Ny40MTEsMjM3NS41NDksNTgzLjM3NiwyNDAwLjQ5NkM1MDkuMzQsMjQyNS40NDMsNTA5LjM0LDI0MzYuMjc2LDUwOS4zNCwyNDQxLjY5M0w1MDkuMzQsMjQ0Ny4xMDkiPjwvcGF0aD48cGF0aCBtYXJrZXItZW5kPSJ1cmwoI2dlTWVybWFpZE91dHB1dC0xNzU0NTk5NzEzMzc4X2Zsb3djaGFydC12Mi1wb2ludEVuZCkiIHN0eWxlPSIiIGNsYXNzPSJlZGdlLXRoaWNrbmVzcy1ub3JtYWwgZWRnZS1wYXR0ZXJuLXNvbGlkIGVkZ2UtdGhpY2tuZXNzLW5vcm1hbCBlZGdlLXBhdHRlcm4tc29saWQgZmxvd2NoYXJ0LWxpbmsiIGlkPSJMX0tfTV8wIiBkPSJNMTA3Mi40MDUsMjM0MC45MzhMMTA3OS40ODIsMjM1My4yMTdDMTA4Ni41NTksMjM2NS40OTUsMTEwMC43MTIsMjM5MC4wNTIsMTEwNy43ODksMjQwNy43NDhDMTExNC44NjUsMjQyNS40NDMsMTExNC44NjUsMjQzNi4yNzYsMTExNC44NjUsMjQ0MS42OTNMMTExNC44NjUsMjQ0Ny4xMDkiPjwvcGF0aD48cGF0aCBtYXJrZXItZW5kPSJ1cmwoI2dlTWVybWFpZE91dHB1dC0xNzU0NTk5NzEzMzc4X2Zsb3djaGFydC12Mi1wb2ludEVuZCkiIHN0eWxlPSIiIGNsYXNzPSJlZGdlLXRoaWNrbmVzcy1ub3JtYWwgZWRnZS1wYXR0ZXJuLXNvbGlkIGVkZ2UtdGhpY2tuZXNzLW5vcm1hbCBlZGdlLXBhdHRlcm4tc29saWQgZmxvd2NoYXJ0LWxpbmsiIGlkPSJMX0xfTl8wIiBkPSJNNTA5LjM0LDI1MDUuMTA5TDUwOS4zNCwyNTExLjE5M0M1MDkuMzQsMjUxNy4yNzYsNTA5LjM0LDI1MjkuNDQzLDU3NC40OTYsMjU0NC44OThDNjM5LjY1MiwyNTYwLjM1Myw3NjkuOTYzLDI1NzkuMDk3LDgzNS4xMTksMjU4OC40NjlMOTAwLjI3NSwyNTk3Ljg0MSI+PC9wYXRoPjxwYXRoIG1hcmtlci1lbmQ9InVybCgjZ2VNZXJtYWlkT3V0cHV0LTE3NTQ1OTk3MTMzNzhfZmxvd2NoYXJ0LXYyLXBvaW50RW5kKSIgc3R5bGU9IiIgY2xhc3M9ImVkZ2UtdGhpY2tuZXNzLW5vcm1hbCBlZGdlLXBhdHRlcm4tc29saWQgZWRnZS10aGlja25lc3Mtbm9ybWFsIGVkZ2UtcGF0dGVybi1zb2xpZCBmbG93Y2hhcnQtbGluayIgaWQ9IkxfTV9OXzAiIGQ9Ik0xMTE0Ljg2NSwyNTA1LjEwOUwxMTE0Ljg2NSwyNTExLjE5M0MxMTE0Ljg2NSwyNTE3LjI3NiwxMTE0Ljg2NSwyNTI5LjQ0MywxMTA4Ljg1NSwyNTQxLjE1NEMxMTAyLjg0NSwyNTUyLjg2NSwxMDkwLjgyNSwyNTY0LjEyLDEwODQuODE1LDI1NjkuNzQ4TDEwNzguODA1LDI1NzUuMzc1Ij48L3BhdGg+PHBhdGggbWFya2VyLWVuZD0idXJsKCNnZU1lcm1haWRPdXRwdXQtMTc1NDU5OTcxMzM3OF9mbG93Y2hhcnQtdjItcG9pbnRFbmQpIiBzdHlsZT0iIiBjbGFzcz0iZWRnZS10aGlja25lc3Mtbm9ybWFsIGVkZ2UtcGF0dGVybi1zb2xpZCBlZGdlLXRoaWNrbmVzcy1ub3JtYWwgZWRnZS1wYXR0ZXJuLXNvbGlkIGZsb3djaGFydC1saW5rIiBpZD0iTF9OX09fMCIgZD0iTTEwMzQuMjM0LDI2NTYuMTA5TDEwMzQuMjM0LDI2NjAuMjc2QzEwMzQuMjM0LDI2NjQuNDQzLDEwMzQuMjM0LDI2NzIuNzc2LDEwMzQuMjM0LDI2ODAuNDQzQzEwMzQuMjM0LDI2ODguMTA5LDEwMzQuMjM0LDI2OTUuMTA5LDEwMzQuMjM0LDI2OTguNjA5TDEwMzQuMjM0LDI3MDIuMTA5Ij48L3BhdGg+PHBhdGggbWFya2VyLWVuZD0idXJsKCNnZU1lcm1haWRPdXRwdXQtMTc1NDU5OTcxMzM3OF9mbG93Y2hhcnQtdjItcG9pbnRFbmQpIiBzdHlsZT0iIiBjbGFzcz0iZWRnZS10aGlja25lc3Mtbm9ybWFsIGVkZ2UtcGF0dGVybi1zb2xpZCBlZGdlLXRoaWNrbmVzcy1ub3JtYWwgZWRnZS1wYXR0ZXJuLXNvbGlkIGZsb3djaGFydC1saW5rIiBpZD0iTF9PX1BfMCIgZD0iTTEwMzQuMjM0LDI3ODQuMTA5TDEwMzQuMjM0LDI3OTAuMTkzQzEwMzQuMjM0LDI3OTYuMjc2LDEwMzQuMjM0LDI4MDguNDQzLDEwMzQuMzA5LDI4MjAuMDI2QzEwMzQuMzgzLDI4MzEuNjA5LDEwMzQuNTMyLDI4NDIuNjEsMTAzNC42MDYsMjg0OC4xMUwxMDM0LjY4LDI4NTMuNjEiPjwvcGF0aD48cGF0aCBtYXJrZXItZW5kPSJ1cmwoI2dlTWVybWFpZE91dHB1dC0xNzU0NTk5NzEzMzc4X2Zsb3djaGFydC12Mi1wb2ludEVuZCkiIHN0eWxlPSIiIGNsYXNzPSJlZGdlLXRoaWNrbmVzcy1ub3JtYWwgZWRnZS1wYXR0ZXJuLXNvbGlkIGVkZ2UtdGhpY2tuZXNzLW5vcm1hbCBlZGdlLXBhdHRlcm4tc29saWQgZmxvd2NoYXJ0LWxpbmsiIGlkPSJMX1BfUV8wIiBkPSJNOTQwLjg3NywzMDQxLjc1Mkw4OTUuNjIzLDMwNjMuMzk1Qzg1MC4zNjksMzA4NS4wMzgsNzU5Ljg2LDMxMjguMzI0LDcxNC42OCwzMTU1LjQ2N0M2NjkuNSwzMTgyLjYwOSw2NjkuNjQ5LDMxOTMuNjEsNjY5LjcyMywzMTk5LjExTDY2OS43OTgsMzIwNC42MSI+PC9wYXRoPjxwYXRoIG1hcmtlci1lbmQ9InVybCgjZ2VNZXJtYWlkT3V0cHV0LTE3NTQ1OTk3MTMzNzhfZmxvd2NoYXJ0LXYyLXBvaW50RW5kKSIgc3R5bGU9IiIgY2xhc3M9ImVkZ2UtdGhpY2tuZXNzLW5vcm1hbCBlZGdlLXBhdHRlcm4tc29saWQgZWRnZS10aGlja25lc3Mtbm9ybWFsIGVkZ2UtcGF0dGVybi1zb2xpZCBmbG93Y2hhcnQtbGluayIgaWQ9IkxfUF9SXzAiIGQ9Ik0xMDM4Ljg3NCwzMTMxLjQ3TDEwMzguOTk4LDMxMzguMTZDMTAzOS4xMjMsMzE0NC44NSwxMDM5LjM3MiwzMTU4LjIzLDEwMzkuNDk3LDMxODQuNzQxQzEwMzkuNjIxLDMyMTEuMjUzLDEwMzkuNjIxLDMyNTAuODk2LDEwMzkuNjIxLDMyNzAuNzE3TDEwMzkuNjIxLDMyOTAuNTM5Ij48L3BhdGg+PHBhdGggbWFya2VyLWVuZD0idXJsKCNnZU1lcm1haWRPdXRwdXQtMTc1NDU5OTcxMzM3OF9mbG93Y2hhcnQtdjItcG9pbnRFbmQpIiBzdHlsZT0iIiBjbGFzcz0iZWRnZS10aGlja25lc3Mtbm9ybWFsIGVkZ2UtcGF0dGVybi1zb2xpZCBlZGdlLXRoaWNrbmVzcy1ub3JtYWwgZWRnZS1wYXR0ZXJuLXNvbGlkIGZsb3djaGFydC1saW5rIiBpZD0iTF9RX1NfMCIgZD0iTTY2OS44NTIsMzQzNS40NjlMNjY5Ljc2OCwzNDM5LjU1MkM2NjkuNjg1LDM0NDMuNjM1LDY2OS41MTgsMzQ1MS44MDIsNjY5LjQzNSwzNDgwLjA1MkM2NjkuMzUyLDM1MDguMzAyLDY2OS4zNTIsMzU1Ni42MzUsNjY5LjM1MiwzNTgwLjgwMkw2NjkuMzUyLDM2MDQuOTY5Ij48L3BhdGg+PHBhdGggbWFya2VyLWVuZD0idXJsKCNnZU1lcm1haWRPdXRwdXQtMTc1NDU5OTcxMzM3OF9mbG93Y2hhcnQtdjItcG9pbnRFbmQpIiBzdHlsZT0iIiBjbGFzcz0iZWRnZS10aGlja25lc3Mtbm9ybWFsIGVkZ2UtcGF0dGVybi1zb2xpZCBlZGdlLXRoaWNrbmVzcy1ub3JtYWwgZWRnZS1wYXR0ZXJuLXNvbGlkIGZsb3djaGFydC1saW5rIiBpZD0iTF9TX1RfMCIgZD0iTTY2OS4zNTIsMzY2Mi45NjlMNjY5LjM1MiwzNjg5LjcxOUM2NjkuMzUyLDM3MTYuNDY5LDY2OS4zNTIsMzc2OS45NjksNjY5LjQyNiwzODAyLjIxOUM2NjkuNSwzODM0LjQ2OSw2NjkuNjQ5LDM4NDUuNDY5LDY2OS43MjMsMzg1MC45NjlMNjY5Ljc5OCwzODU2LjQ2OSI+PC9wYXRoPjxwYXRoIG1hcmtlci1lbmQ9InVybCgjZ2VNZXJtYWlkT3V0cHV0LTE3NTQ1OTk3MTMzNzhfZmxvd2NoYXJ0LXYyLXBvaW50RW5kKSIgc3R5bGU9IiIgY2xhc3M9ImVkZ2UtdGhpY2tuZXNzLW5vcm1hbCBlZGdlLXBhdHRlcm4tc29saWQgZWRnZS10aGlja25lc3Mtbm9ybWFsIGVkZ2UtcGF0dGVybi1zb2xpZCBmbG93Y2hhcnQtbGluayIgaWQ9IkxfVF9VXzAiIGQ9Ik02MDguMjIsNDA0NS42OTZMNTkxLjgyNSw0MDYxLjk2OEM1NzUuNDMsNDA3OC4yNCw1NDIuNjQxLDQxMTAuNzg0LDUyNi4yNDYsNDEzNC40NzNDNTA5Ljg1Miw0MTU4LjE2MSw1MDkuODUyLDQxNzIuOTk1LDUwOS44NTIsNDE4MC40MTFMNTA5Ljg1Miw0MTg3LjgyOCI+PC9wYXRoPjxwYXRoIG1hcmtlci1lbmQ9InVybCgjZ2VNZXJtYWlkT3V0cHV0LTE3NTQ1OTk3MTMzNzhfZmxvd2NoYXJ0LXYyLXBvaW50RW5kKSIgc3R5bGU9IiIgY2xhc3M9ImVkZ2UtdGhpY2tuZXNzLW5vcm1hbCBlZGdlLXBhdHRlcm4tc29saWQgZWRnZS10aGlja25lc3Mtbm9ybWFsIGVkZ2UtcGF0dGVybi1zb2xpZCBmbG93Y2hhcnQtbGluayIgaWQ9IkxfVF9WXzAiIGQ9Ik03MjkuMzI2LDQwNDcuODUzTDc0NC4xMTgsNDA2My43NjZDNzU4LjkxLDQwNzkuNjc4LDc4OC40OTQsNDExMS41MDMsODAzLjI4Niw0MTMyLjgzMkM4MTguMDc4LDQxNTQuMTYxLDgxOC4wNzgsNDE2NC45OTUsODE4LjA3OCw0MTcwLjQxMUw4MTguMDc4LDQxNzUuODI4Ij48L3BhdGg+PHBhdGggbWFya2VyLWVuZD0idXJsKCNnZU1lcm1haWRPdXRwdXQtMTc1NDU5OTcxMzM3OF9mbG93Y2hhcnQtdjItcG9pbnRFbmQpIiBzdHlsZT0iIiBjbGFzcz0iZWRnZS10aGlja25lc3Mtbm9ybWFsIGVkZ2UtcGF0dGVybi1zb2xpZCBlZGdlLXRoaWNrbmVzcy1ub3JtYWwgZWRnZS1wYXR0ZXJuLXNvbGlkIGZsb3djaGFydC1saW5rIiBpZD0iTF9VX0RfMCIgZD0iTTUwOS44NTIsNDI0NS44MjhMNTA5Ljg1Miw0MjUxLjk5NUM1MDkuODUyLDQyNTguMTYxLDUwOS44NTIsNDI3MC40OTUsNTAzLjg3NCw0MjgwLjQ3QzQ5Ny44OTcsNDI5MC40NDUsNDg1Ljk0Miw0Mjk4LjA2Miw0NzkuOTY1LDQzMDEuODdMNDczLjk4OCw0MzA1LjY3OSI+PC9wYXRoPjxwYXRoIG1hcmtlci1lbmQ9InVybCgjZ2VNZXJtYWlkT3V0cHV0LTE3NTQ1OTk3MTMzNzhfZmxvd2NoYXJ0LXYyLXBvaW50RW5kKSIgc3R5bGU9IiIgY2xhc3M9ImVkZ2UtdGhpY2tuZXNzLW5vcm1hbCBlZGdlLXBhdHRlcm4tc29saWQgZWRnZS10aGlja25lc3Mtbm9ybWFsIGVkZ2UtcGF0dGVybi1zb2xpZCBmbG93Y2hhcnQtbGluayIgaWQ9IkxfVl9EXzAiIGQ9Ik04MTguMDc4LDQyNTcuODI4TDgxOC4wNzgsNDI2MS45OTVDODE4LjA3OCw0MjY2LjE2MSw4MTguMDc4LDQyNzQuNDk1LDc3Mi4zODcsNDI4NC43NTZDNzI2LjY5NSw0Mjk1LjAxOCw2MzUuMzEzLDQzMDcuMjA3LDU4OS42MjEsNDMxMy4zMDJMNTQzLjkzLDQzMTkuMzk2Ij48L3BhdGg+PHBhdGggbWFya2VyLWVuZD0idXJsKCNnZU1lcm1haWRPdXRwdXQtMTc1NDU5OTcxMzM3OF9mbG93Y2hhcnQtdjItcG9pbnRFbmQpIiBzdHlsZT0iIiBjbGFzcz0iZWRnZS10aGlja25lc3Mtbm9ybWFsIGVkZ2UtcGF0dGVybi1zb2xpZCBlZGdlLXRoaWNrbmVzcy1ub3JtYWwgZWRnZS1wYXR0ZXJuLXNvbGlkIGZsb3djaGFydC1saW5rIiBpZD0iTF9SX1dfMCIgZD0iTTEwMzkuNjIxLDMzNDguNTM5TDEwMzkuNjIxLDMzNjcuMTExQzEwMzkuNjIxLDMzODUuNjgyLDEwMzkuNjIxLDM0MjIuODI2LDEwNDQuNDQ0LDM0NTIuNTcyQzEwNDkuMjY3LDM0ODIuMzE5LDEwNTguOTEyLDM1MDQuNjY5LDEwNjMuNzM1LDM1MTUuODQ0TDEwNjguNTU4LDM1MjcuMDE5Ij48L3BhdGg+PHBhdGggbWFya2VyLWVuZD0idXJsKCNnZU1lcm1haWRPdXRwdXQtMTc1NDU5OTcxMzM3OF9mbG93Y2hhcnQtdjItcG9pbnRFbmQpIiBzdHlsZT0iIiBjbGFzcz0iZWRnZS10aGlja25lc3Mtbm9ybWFsIGVkZ2UtcGF0dGVybi1zb2xpZCBlZGdlLXRoaWNrbmVzcy1ub3JtYWwgZWRnZS1wYXR0ZXJuLXNvbGlkIGZsb3djaGFydC1saW5rIiBpZD0iTF9XX1hfMCIgZD0iTTExMTUuMzY1LDM3ODcuNDY5TDExMTUuMjgyLDM3OTMuNDY5QzExMTUuMTk5LDM3OTkuNDY5LDExMTUuMDMyLDM4MTEuNDY5LDExMTQuOTQ5LDM4MzYuOTU3QzExMTQuODY1LDM4NjIuNDQ1LDExMTQuODY1LDM5MDEuNDIyLDExMTQuODY1LDM5MjAuOTFMMTExNC44NjUsMzk0MC4zOTgiPjwvcGF0aD48cGF0aCBtYXJrZXItZW5kPSJ1cmwoI2dlTWVybWFpZE91dHB1dC0xNzU0NTk5NzEzMzc4X2Zsb3djaGFydC12Mi1wb2ludEVuZCkiIHN0eWxlPSIiIGNsYXNzPSJlZGdlLXRoaWNrbmVzcy1ub3JtYWwgZWRnZS1wYXR0ZXJuLXNvbGlkIGVkZ2UtdGhpY2tuZXNzLW5vcm1hbCBlZGdlLXBhdHRlcm4tc29saWQgZmxvd2NoYXJ0LWxpbmsiIGlkPSJMX1hfRF8wIiBkPSJNMTExNC44NjUsNDAyMi4zOThMMTExNC44NjUsNDA0Mi41NTNDMTExNC44NjUsNDA2Mi43MDgsMTExNC44NjUsNDEwMy4wMTgsMTExNC44NjUsNDEzNS43NTdDMTExNC44NjUsNDE2OC40OTUsMTExNC44NjUsNDE5My42NjEsMTExNC44NjUsNDIxNi45MTFDMTExNC44NjUsNDI0MC4xNjEsMTExNC44NjUsNDI2MS40OTUsMTAxOS43MTMsNDI3OS4zNjhDOTI0LjU2MSw0Mjk3LjI0LDczNC4yNTcsNDMxMS42NTMsNjM5LjEwNSw0MzE4Ljg1OUw1NDMuOTUzLDQzMjYuMDY1Ij48L3BhdGg+PHBhdGggbWFya2VyLWVuZD0idXJsKCNnZU1lcm1haWRPdXRwdXQtMTc1NDU5OTcxMzM3OF9mbG93Y2hhcnQtdjItcG9pbnRFbmQpIiBzdHlsZT0iIiBjbGFzcz0iZWRnZS10aGlja25lc3Mtbm9ybWFsIGVkZ2UtcGF0dGVybi1zb2xpZCBlZGdlLXRoaWNrbmVzcy1ub3JtYWwgZWRnZS1wYXR0ZXJuLXNvbGlkIGZsb3djaGFydC1saW5rIiBpZD0iTF9XX1BfMCIgZD0iTTExNjAuNTg4LDM1MzAuNjkxTDExNjUuNTA4LDM1MTguOTA0QzExNzAuNDI4LDM1MDcuMTE3LDExODAuMjY5LDM0ODMuNTQzLDExODUuMTg5LDM0NDguNjg0QzExOTAuMTA5LDM0MTMuODI2LDExOTAuMTA5LDMzNjcuNjgyLDExOTAuMTA5LDMzMTkuNjIyQzExOTAuMTA5LDMyNzEuNTYzLDExOTAuMTA5LDMyMjEuNTg2LDExNzUuNTUzLDMxODAuMTk5QzExNjAuOTk3LDMxMzguODEyLDExMzEuODg2LDMxMDYuMDE0LDExMTcuMzMsMzA4OS42MTZMMTEwMi43NzQsMzA3My4yMTciPjwvcGF0aD48L2c+PGcgY2xhc3M9ImVkZ2VMYWJlbHMiPjxnPjxyZWN0IHN0eWxlPSJzdHJva2U6IG5vbmUiIGNsYXNzPSJiYWNrZ3JvdW5kIj48L3JlY3Q+PC9nPjxnPjxyZWN0IHN0eWxlPSJzdHJva2U6IG5vbmUiIGNsYXNzPSJiYWNrZ3JvdW5kIj48L3JlY3Q+PC9nPjxnPjxyZWN0IHN0eWxlPSJzdHJva2U6IG5vbmUiIGNsYXNzPSJiYWNrZ3JvdW5kIj48L3JlY3Q+PC9nPjxnPjxyZWN0IHN0eWxlPSJzdHJva2U6IG5vbmUiIGNsYXNzPSJiYWNrZ3JvdW5kIj48L3JlY3Q+PC9nPjxnPjxyZWN0IHN0eWxlPSJzdHJva2U6IG5vbmUiIGNsYXNzPSJiYWNrZ3JvdW5kIj48L3JlY3Q+PC9nPjxnPjxyZWN0IHN0eWxlPSJzdHJva2U6IG5vbmUiIGNsYXNzPSJiYWNrZ3JvdW5kIj48L3JlY3Q+PC9nPjxnPjxyZWN0IHN0eWxlPSJzdHJva2U6IG5vbmUiIGNsYXNzPSJiYWNrZ3JvdW5kIj48L3JlY3Q+PC9nPjxnPjxyZWN0IHN0eWxlPSJzdHJva2U6IG5vbmUiIGNsYXNzPSJiYWNrZ3JvdW5kIj48L3JlY3Q+PC9nPjxnPjxyZWN0IHN0eWxlPSJzdHJva2U6IG5vbmUiIGNsYXNzPSJiYWNrZ3JvdW5kIj48L3JlY3Q+PC9nPjxnPjxyZWN0IHN0eWxlPSJzdHJva2U6IG5vbmUiIGNsYXNzPSJiYWNrZ3JvdW5kIj48L3JlY3Q+PC9nPjxnPjxyZWN0IHN0eWxlPSJzdHJva2U6IG5vbmUiIGNsYXNzPSJiYWNrZ3JvdW5kIj48L3JlY3Q+PC9nPjxnPjxyZWN0IHN0eWxlPSJzdHJva2U6IG5vbmUiIGNsYXNzPSJiYWNrZ3JvdW5kIj48L3JlY3Q+PC9nPjxnPjxyZWN0IHN0eWxlPSJzdHJva2U6IG5vbmUiIGNsYXNzPSJiYWNrZ3JvdW5kIj48L3JlY3Q+PC9nPjxnPjxyZWN0IHN0eWxlPSJzdHJva2U6IG5vbmUiIGNsYXNzPSJiYWNrZ3JvdW5kIj48L3JlY3Q+PC9nPjxnPjxyZWN0IHN0eWxlPSJzdHJva2U6IG5vbmUiIGNsYXNzPSJiYWNrZ3JvdW5kIj48L3JlY3Q+PC9nPjxnIGNsYXNzPSJlZGdlTGFiZWwiPjxnIHRyYW5zZm9ybT0idHJhbnNsYXRlKDAsIDApIiBjbGFzcz0ibGFiZWwiPjx0ZXh0IHk9Ii0xMC4xIj48dHNwYW4gZHk9IjEuMWVtIiB5PSItMC4xZW0iIHg9IjAiIGNsYXNzPSJ0ZXh0LW91dGVyLXRzcGFuIj48L3RzcGFuPjwvdGV4dD48L2c+PC9nPjxnIGNsYXNzPSJlZGdlTGFiZWwiPjxnIHRyYW5zZm9ybT0idHJhbnNsYXRlKDAsIDApIiBjbGFzcz0ibGFiZWwiPjx0ZXh0IHk9Ii0xMC4xIj48dHNwYW4gZHk9IjEuMWVtIiB5PSItMC4xZW0iIHg9IjAiIGNsYXNzPSJ0ZXh0LW91dGVyLXRzcGFuIj48L3RzcGFuPjwvdGV4dD48L2c+PC9nPjxnIHRyYW5zZm9ybT0idHJhbnNsYXRlKDIyLjA4NTkzNzUsIDI1NDEuNjA5Mzc1KSIgY2xhc3M9ImVkZ2VMYWJlbCI+PGcgdHJhbnNmb3JtPSJ0cmFuc2xhdGUoLTE0LjA4NTkzNzUsIC0xMS41KSIgY2xhc3M9ImxhYmVsIj48Zz48cmVjdCBoZWlnaHQ9IjIzIiB3aWR0aD0iMjguMTcxODc1IiB5PSItMSIgeD0iLTMiIHN0eWxlPSIiIGNsYXNzPSJiYWNrZ3JvdW5kIj48L3JlY3Q+PHRleHQgc3R5bGU9IiIgeT0iLTEwLjEiPjx0c3BhbiBkeT0iMS4xZW0iIHk9Ii0wLjFlbSIgeD0iMCIgY2xhc3M9InRleHQtb3V0ZXItdHNwYW4iPjx0c3BhbiBmb250LXdlaWdodD0ibm9ybWFsIiBjbGFzcz0idGV4dC1pbm5lci10c3BhbiIgZm9udC1zdHlsZT0ibm9ybWFsIj5ZZXM8L3RzcGFuPjwvdHNwYW4+PC90ZXh0PjwvZz48L2c+PC9nPjxnIHRyYW5zZm9ybT0idHJhbnNsYXRlKDYyMy4wMDc4MTI1LCA3NzguNSkiIGNsYXNzPSJlZGdlTGFiZWwiPjxnIHRyYW5zZm9ybT0idHJhbnNsYXRlKC0xMS42MDU0Njg3NSwgLTExLjUpIiBjbGFzcz0ibGFiZWwiPjxnPjxyZWN0IGhlaWdodD0iMjMiIHdpZHRoPSIyMy4yMTA5Mzc1IiB5PSItMSIgeD0iLTIiIHN0eWxlPSIiIGNsYXNzPSJiYWNrZ3JvdW5kIj48L3JlY3Q+PHRleHQgc3R5bGU9IiIgeT0iLTEwLjEiPjx0c3BhbiBkeT0iMS4xZW0iIHk9Ii0wLjFlbSIgeD0iMCIgY2xhc3M9InRleHQtb3V0ZXItdHNwYW4iPjx0c3BhbiBmb250LXdlaWdodD0ibm9ybWFsIiBjbGFzcz0idGV4dC1pbm5lci10c3BhbiIgZm9udC1zdHlsZT0ibm9ybWFsIj5ObzwvdHNwYW4+PC90c3Bhbj48L3RleHQ+PC9nPjwvZz48L2c+PGcgdHJhbnNmb3JtPSJ0cmFuc2xhdGUoMTc2LjQ0NTMxMjUsIDI1NDEuNjA5Mzc1KSIgY2xhc3M9ImVkZ2VMYWJlbCI+PGcgdHJhbnNmb3JtPSJ0cmFuc2xhdGUoLTE0LjA4NTkzNzUsIC0xMS41KSIgY2xhc3M9ImxhYmVsIj48Zz48cmVjdCBoZWlnaHQ9IjIzIiB3aWR0aD0iMjguMTcxODc1IiB5PSItMSIgeD0iLTMiIHN0eWxlPSIiIGNsYXNzPSJiYWNrZ3JvdW5kIj48L3JlY3Q+PHRleHQgc3R5bGU9IiIgeT0iLTEwLjEiPjx0c3BhbiBkeT0iMS4xZW0iIHk9Ii0wLjFlbSIgeD0iMCIgY2xhc3M9InRleHQtb3V0ZXItdHNwYW4iPjx0c3BhbiBmb250LXdlaWdodD0ibm9ybWFsIiBjbGFzcz0idGV4dC1pbm5lci10c3BhbiIgZm9udC1zdHlsZT0ibm9ybWFsIj5ZZXM8L3RzcGFuPjwvdHNwYW4+PC90ZXh0PjwvZz48L2c+PC9nPjxnIGNsYXNzPSJlZGdlTGFiZWwiPjxnIHRyYW5zZm9ybT0idHJhbnNsYXRlKDAsIDApIiBjbGFzcz0ibGFiZWwiPjx0ZXh0IHk9Ii0xMC4xIj48dHNwYW4gZHk9IjEuMWVtIiB5PSItMC4xZW0iIHg9IjAiIGNsYXNzPSJ0ZXh0LW91dGVyLXRzcGFuIj48L3RzcGFuPjwvdGV4dD48L2c+PC9nPjxnIHRyYW5zZm9ybT0idHJhbnNsYXRlKDcxNi4wMDc4MTI1LCAxMDI2LjE3MTg3NSkiIGNsYXNzPSJlZGdlTGFiZWwiPjxnIHRyYW5zZm9ybT0idHJhbnNsYXRlKC0xMS42MDU0Njg3NSwgLTExLjUpIiBjbGFzcz0ibGFiZWwiPjxnPjxyZWN0IGhlaWdodD0iMjMiIHdpZHRoPSIyMy4yMTA5Mzc1IiB5PSItMSIgeD0iLTIiIHN0eWxlPSIiIGNsYXNzPSJiYWNrZ3JvdW5kIj48L3JlY3Q+PHRleHQgc3R5bGU9IiIgeT0iLTEwLjEiPjx0c3BhbiBkeT0iMS4xZW0iIHk9Ii0wLjFlbSIgeD0iMCIgY2xhc3M9InRleHQtb3V0ZXItdHNwYW4iPjx0c3BhbiBmb250LXdlaWdodD0ibm9ybWFsIiBjbGFzcz0idGV4dC1pbm5lci10c3BhbiIgZm9udC1zdHlsZT0ibm9ybWFsIj5ObzwvdHNwYW4+PC90c3Bhbj48L3RleHQ+PC9nPjwvZz48L2c+PGcgdHJhbnNmb3JtPSJ0cmFuc2xhdGUoMzYyLjQyNzczNDM3NSwgMTQwMS4xNzE4NzUpIiBjbGFzcz0iZWRnZUxhYmVsIj48ZyB0cmFuc2Zvcm09InRyYW5zbGF0ZSgtMTQuMDg1OTM3NSwgLTExLjUpIiBjbGFzcz0ibGFiZWwiPjxnPjxyZWN0IGhlaWdodD0iMjMiIHdpZHRoPSIyOC4xNzE4NzUiIHk9Ii0xIiB4PSItMyIgc3R5bGU9IiIgY2xhc3M9ImJhY2tncm91bmQiPjwvcmVjdD48dGV4dCBzdHlsZT0iIiB5PSItMTAuMSI+PHRzcGFuIGR5PSIxLjFlbSIgeT0iLTAuMWVtIiB4PSIwIiBjbGFzcz0idGV4dC1vdXRlci10c3BhbiI+PHRzcGFuIGZvbnQtd2VpZ2h0PSJub3JtYWwiIGNsYXNzPSJ0ZXh0LWlubmVyLXRzcGFuIiBmb250LXN0eWxlPSJub3JtYWwiPlllczwvdHNwYW4+PC90c3Bhbj48L3RleHQ+PC9nPjwvZz48L2c+PGcgY2xhc3M9ImVkZ2VMYWJlbCI+PGcgdHJhbnNmb3JtPSJ0cmFuc2xhdGUoMCwgMCkiIGNsYXNzPSJsYWJlbCI+PHRleHQgeT0iLTEwLjEiPjx0c3BhbiBkeT0iMS4xZW0iIHk9Ii0wLjFlbSIgeD0iMCIgY2xhc3M9InRleHQtb3V0ZXItdHNwYW4iPjwvdHNwYW4+PC90ZXh0PjwvZz48L2c+PGcgdHJhbnNmb3JtPSJ0cmFuc2xhdGUoMzQ2LjYyNSwgMjgyMC42MDkzNzUpIiBjbGFzcz0iZWRnZUxhYmVsIj48ZyB0cmFuc2Zvcm09InRyYW5zbGF0ZSgtMTQuMDg1OTM3NSwgLTExLjUpIiBjbGFzcz0ibGFiZWwiPjxnPjxyZWN0IGhlaWdodD0iMjMiIHdpZHRoPSIyOC4xNzE4NzUiIHk9Ii0xIiB4PSItMyIgc3R5bGU9IiIgY2xhc3M9ImJhY2tncm91bmQiPjwvcmVjdD48dGV4dCBzdHlsZT0iIiB5PSItMTAuMSI+PHRzcGFuIGR5PSIxLjFlbSIgeT0iLTAuMWVtIiB4PSIwIiBjbGFzcz0idGV4dC1vdXRlci10c3BhbiI+PHRzcGFuIGZvbnQtd2VpZ2h0PSJub3JtYWwiIGNsYXNzPSJ0ZXh0LWlubmVyLXRzcGFuIiBmb250LXN0eWxlPSJub3JtYWwiPlllczwvdHNwYW4+PC90c3Bhbj48L3RleHQ+PC9nPjwvZz48L2c+PGcgdHJhbnNmb3JtPSJ0cmFuc2xhdGUoNDQ5LjQyNzczNDM3NSwgMjAzMi4xODc1KSIgY2xhc3M9ImVkZ2VMYWJlbCI+PGcgdHJhbnNmb3JtPSJ0cmFuc2xhdGUoLTExLjYwNTQ2ODc1LCAtMTEuNSkiIGNsYXNzPSJsYWJlbCI+PGc+PHJlY3QgaGVpZ2h0PSIyMyIgd2lkdGg9IjIzLjIxMDkzNzUiIHk9Ii0xIiB4PSItMiIgc3R5bGU9IiIgY2xhc3M9ImJhY2tncm91bmQiPjwvcmVjdD48dGV4dCBzdHlsZT0iIiB5PSItMTAuMSI+PHRzcGFuIGR5PSIxLjFlbSIgeT0iLTAuMWVtIiB4PSIwIiBjbGFzcz0idGV4dC1vdXRlci10c3BhbiI+PHRzcGFuIGZvbnQtd2VpZ2h0PSJub3JtYWwiIGNsYXNzPSJ0ZXh0LWlubmVyLXRzcGFuIiBmb250LXN0eWxlPSJub3JtYWwiPk5vPC90c3Bhbj48L3RzcGFuPjwvdGV4dD48L2c+PC9nPjwvZz48ZyB0cmFuc2Zvcm09InRyYW5zbGF0ZSgxMDUwLjAzNzEwOTM3NSwgMTc1OC4wMTU2MjUpIiBjbGFzcz0iZWRnZUxhYmVsIj48ZyB0cmFuc2Zvcm09InRyYW5zbGF0ZSgtMTEuNjA1NDY4NzUsIC0xMS41KSIgY2xhc3M9ImxhYmVsIj48Zz48cmVjdCBoZWlnaHQ9IjIzIiB3aWR0aD0iMjMuMjEwOTM3NSIgeT0iLTEiIHg9Ii0yIiBzdHlsZT0iIiBjbGFzcz0iYmFja2dyb3VuZCI+PC9yZWN0Pjx0ZXh0IHN0eWxlPSIiIHk9Ii0xMC4xIj48dHNwYW4gZHk9IjEuMWVtIiB5PSItMC4xZW0iIHg9IjAiIGNsYXNzPSJ0ZXh0LW91dGVyLXRzcGFuIj48dHNwYW4gZm9udC13ZWlnaHQ9Im5vcm1hbCIgY2xhc3M9InRleHQtaW5uZXItdHNwYW4iIGZvbnQtc3R5bGU9Im5vcm1hbCI+Tm88L3RzcGFuPjwvdHNwYW4+PC90ZXh0PjwvZz48L2c+PC9nPjxnIGNsYXNzPSJlZGdlTGFiZWwiPjxnIHRyYW5zZm9ybT0idHJhbnNsYXRlKDAsIDApIiBjbGFzcz0ibGFiZWwiPjx0ZXh0IHk9Ii0xMC4xIj48dHNwYW4gZHk9IjEuMWVtIiB5PSItMC4xZW0iIHg9IjAiIGNsYXNzPSJ0ZXh0LW91dGVyLXRzcGFuIj48L3RzcGFuPjwvdGV4dD48L2c+PC9nPjxnIHRyYW5zZm9ybT0idHJhbnNsYXRlKDUwOS4zMzk4NDM3NSwgMjQxNC42MDkzNzUpIiBjbGFzcz0iZWRnZUxhYmVsIj48ZyB0cmFuc2Zvcm09InRyYW5zbGF0ZSgtMTQuMDg1OTM3NSwgLTExLjUpIiBjbGFzcz0ibGFiZWwiPjxnPjxyZWN0IGhlaWdodD0iMjMiIHdpZHRoPSIyOC4xNzE4NzUiIHk9Ii0xIiB4PSItMyIgc3R5bGU9IiIgY2xhc3M9ImJhY2tncm91bmQiPjwvcmVjdD48dGV4dCBzdHlsZT0iIiB5PSItMTAuMSI+PHRzcGFuIGR5PSIxLjFlbSIgeT0iLTAuMWVtIiB4PSIwIiBjbGFzcz0idGV4dC1vdXRlci10c3BhbiI+PHRzcGFuIGZvbnQtd2VpZ2h0PSJub3JtYWwiIGNsYXNzPSJ0ZXh0LWlubmVyLXRzcGFuIiBmb250LXN0eWxlPSJub3JtYWwiPlllczwvdHNwYW4+PC90c3Bhbj48L3RleHQ+PC9nPjwvZz48L2c+PGcgdHJhbnNmb3JtPSJ0cmFuc2xhdGUoMTExNC44NjUyMzQzNzUsIDI0MTQuNjA5Mzc1KSIgY2xhc3M9ImVkZ2VMYWJlbCI+PGcgdHJhbnNmb3JtPSJ0cmFuc2xhdGUoLTExLjYwNTQ2ODc1LCAtMTEuNSkiIGNsYXNzPSJsYWJlbCI+PGc+PHJlY3QgaGVpZ2h0PSIyMyIgd2lkdGg9IjIzLjIxMDkzNzUiIHk9Ii0xIiB4PSItMiIgc3R5bGU9IiIgY2xhc3M9ImJhY2tncm91bmQiPjwvcmVjdD48dGV4dCBzdHlsZT0iIiB5PSItMTAuMSI+PHRzcGFuIGR5PSIxLjFlbSIgeT0iLTAuMWVtIiB4PSIwIiBjbGFzcz0idGV4dC1vdXRlci10c3BhbiI+PHRzcGFuIGZvbnQtd2VpZ2h0PSJub3JtYWwiIGNsYXNzPSJ0ZXh0LWlubmVyLXRzcGFuIiBmb250LXN0eWxlPSJub3JtYWwiPk5vPC90c3Bhbj48L3RzcGFuPjwvdGV4dD48L2c+PC9nPjwvZz48ZyBjbGFzcz0iZWRnZUxhYmVsIj48ZyB0cmFuc2Zvcm09InRyYW5zbGF0ZSgwLCAwKSIgY2xhc3M9ImxhYmVsIj48dGV4dCB5PSItMTAuMSI+PHRzcGFuIGR5PSIxLjFlbSIgeT0iLTAuMWVtIiB4PSIwIiBjbGFzcz0idGV4dC1vdXRlci10c3BhbiI+PC90c3Bhbj48L3RleHQ+PC9nPjwvZz48ZyBjbGFzcz0iZWRnZUxhYmVsIj48ZyB0cmFuc2Zvcm09InRyYW5zbGF0ZSgwLCAwKSIgY2xhc3M9ImxhYmVsIj48dGV4dCB5PSItMTAuMSI+PHRzcGFuIGR5PSIxLjFlbSIgeT0iLTAuMWVtIiB4PSIwIiBjbGFzcz0idGV4dC1vdXRlci10c3BhbiI+PC90c3Bhbj48L3RleHQ+PC9nPjwvZz48ZyBjbGFzcz0iZWRnZUxhYmVsIj48ZyB0cmFuc2Zvcm09InRyYW5zbGF0ZSgwLCAwKSIgY2xhc3M9ImxhYmVsIj48dGV4dCB5PSItMTAuMSI+PHRzcGFuIGR5PSIxLjFlbSIgeT0iLTAuMWVtIiB4PSIwIiBjbGFzcz0idGV4dC1vdXRlci10c3BhbiI+PC90c3Bhbj48L3RleHQ+PC9nPjwvZz48ZyBjbGFzcz0iZWRnZUxhYmVsIj48ZyB0cmFuc2Zvcm09InRyYW5zbGF0ZSgwLCAwKSIgY2xhc3M9ImxhYmVsIj48dGV4dCB5PSItMTAuMSI+PHRzcGFuIGR5PSIxLjFlbSIgeT0iLTAuMWVtIiB4PSIwIiBjbGFzcz0idGV4dC1vdXRlci10c3BhbiI+PC90c3Bhbj48L3RleHQ+PC9nPjwvZz48ZyB0cmFuc2Zvcm09InRyYW5zbGF0ZSg2NjkuMzUxNTYyNSwgMzE3MS42MDkzNzUpIiBjbGFzcz0iZWRnZUxhYmVsIj48ZyB0cmFuc2Zvcm09InRyYW5zbGF0ZSgtMTEuNjA1NDY4NzUsIC0xMS41KSIgY2xhc3M9ImxhYmVsIj48Zz48cmVjdCBoZWlnaHQ9IjIzIiB3aWR0aD0iMjMuMjEwOTM3NSIgeT0iLTEiIHg9Ii0yIiBzdHlsZT0iIiBjbGFzcz0iYmFja2dyb3VuZCI+PC9yZWN0Pjx0ZXh0IHN0eWxlPSIiIHk9Ii0xMC4xIj48dHNwYW4gZHk9IjEuMWVtIiB5PSItMC4xZW0iIHg9IjAiIGNsYXNzPSJ0ZXh0LW91dGVyLXRzcGFuIj48dHNwYW4gZm9udC13ZWlnaHQ9Im5vcm1hbCIgY2xhc3M9InRleHQtaW5uZXItdHNwYW4iIGZvbnQtc3R5bGU9Im5vcm1hbCI+Tm88L3RzcGFuPjwvdHNwYW4+PC90ZXh0PjwvZz48L2c+PC9nPjxnIHRyYW5zZm9ybT0idHJhbnNsYXRlKDEwMzkuNjIxMDkzNzUsIDMxNzEuNjA5Mzc1KSIgY2xhc3M9ImVkZ2VMYWJlbCI+PGcgdHJhbnNmb3JtPSJ0cmFuc2xhdGUoLTE0LjA4NTkzNzUsIC0xMS41KSIgY2xhc3M9ImxhYmVsIj48Zz48cmVjdCBoZWlnaHQ9IjIzIiB3aWR0aD0iMjguMTcxODc1IiB5PSItMSIgeD0iLTMiIHN0eWxlPSIiIGNsYXNzPSJiYWNrZ3JvdW5kIj48L3JlY3Q+PHRleHQgc3R5bGU9IiIgeT0iLTEwLjEiPjx0c3BhbiBkeT0iMS4xZW0iIHk9Ii0wLjFlbSIgeD0iMCIgY2xhc3M9InRleHQtb3V0ZXItdHNwYW4iPjx0c3BhbiBmb250LXdlaWdodD0ibm9ybWFsIiBjbGFzcz0idGV4dC1pbm5lci10c3BhbiIgZm9udC1zdHlsZT0ibm9ybWFsIj5ZZXM8L3RzcGFuPjwvdHNwYW4+PC90ZXh0PjwvZz48L2c+PC9nPjxnIGNsYXNzPSJlZGdlTGFiZWwiPjxnIHRyYW5zZm9ybT0idHJhbnNsYXRlKDAsIDApIiBjbGFzcz0ibGFiZWwiPjx0ZXh0IHk9Ii0xMC4xIj48dHNwYW4gZHk9IjEuMWVtIiB5PSItMC4xZW0iIHg9IjAiIGNsYXNzPSJ0ZXh0LW91dGVyLXRzcGFuIj48L3RzcGFuPjwvdGV4dD48L2c+PC9nPjxnIGNsYXNzPSJlZGdlTGFiZWwiPjxnIHRyYW5zZm9ybT0idHJhbnNsYXRlKDAsIDApIiBjbGFzcz0ibGFiZWwiPjx0ZXh0IHk9Ii0xMC4xIj48dHNwYW4gZHk9IjEuMWVtIiB5PSItMC4xZW0iIHg9IjAiIGNsYXNzPSJ0ZXh0LW91dGVyLXRzcGFuIj48L3RzcGFuPjwvdGV4dD48L2c+PC9nPjxnIHRyYW5zZm9ybT0idHJhbnNsYXRlKDUwOS44NTE1NjI1LCA0MTQzLjMyODEyNSkiIGNsYXNzPSJlZGdlTGFiZWwiPjxnIHRyYW5zZm9ybT0idHJhbnNsYXRlKC0xNC4wODU5Mzc1LCAtMTEuNSkiIGNsYXNzPSJsYWJlbCI+PGc+PHJlY3QgaGVpZ2h0PSIyMyIgd2lkdGg9IjI4LjE3MTg3NSIgeT0iLTEiIHg9Ii0zIiBzdHlsZT0iIiBjbGFzcz0iYmFja2dyb3VuZCI+PC9yZWN0Pjx0ZXh0IHN0eWxlPSIiIHk9Ii0xMC4xIj48dHNwYW4gZHk9IjEuMWVtIiB5PSItMC4xZW0iIHg9IjAiIGNsYXNzPSJ0ZXh0LW91dGVyLXRzcGFuIj48dHNwYW4gZm9udC13ZWlnaHQ9Im5vcm1hbCIgY2xhc3M9InRleHQtaW5uZXItdHNwYW4iIGZvbnQtc3R5bGU9Im5vcm1hbCI+WWVzPC90c3Bhbj48L3RzcGFuPjwvdGV4dD48L2c+PC9nPjwvZz48ZyB0cmFuc2Zvcm09InRyYW5zbGF0ZSg4MTguMDc4MTI1LCA0MTQzLjMyODEyNSkiIGNsYXNzPSJlZGdlTGFiZWwiPjxnIHRyYW5zZm9ybT0idHJhbnNsYXRlKC0xMS42MDU0Njg3NSwgLTExLjUpIiBjbGFzcz0ibGFiZWwiPjxnPjxyZWN0IGhlaWdodD0iMjMiIHdpZHRoPSIyMy4yMTA5Mzc1IiB5PSItMSIgeD0iLTIiIHN0eWxlPSIiIGNsYXNzPSJiYWNrZ3JvdW5kIj48L3JlY3Q+PHRleHQgc3R5bGU9IiIgeT0iLTEwLjEiPjx0c3BhbiBkeT0iMS4xZW0iIHk9Ii0wLjFlbSIgeD0iMCIgY2xhc3M9InRleHQtb3V0ZXItdHNwYW4iPjx0c3BhbiBmb250LXdlaWdodD0ibm9ybWFsIiBjbGFzcz0idGV4dC1pbm5lci10c3BhbiIgZm9udC1zdHlsZT0ibm9ybWFsIj5ObzwvdHNwYW4+PC90c3Bhbj48L3RleHQ+PC9nPjwvZz48L2c+PGcgY2xhc3M9ImVkZ2VMYWJlbCI+PGcgdHJhbnNmb3JtPSJ0cmFuc2xhdGUoMCwgMCkiIGNsYXNzPSJsYWJlbCI+PHRleHQgeT0iLTEwLjEiPjx0c3BhbiBkeT0iMS4xZW0iIHk9Ii0wLjFlbSIgeD0iMCIgY2xhc3M9InRleHQtb3V0ZXItdHNwYW4iPjwvdHNwYW4+PC90ZXh0PjwvZz48L2c+PGcgY2xhc3M9ImVkZ2VMYWJlbCI+PGcgdHJhbnNmb3JtPSJ0cmFuc2xhdGUoMCwgMCkiIGNsYXNzPSJsYWJlbCI+PHRleHQgeT0iLTEwLjEiPjx0c3BhbiBkeT0iMS4xZW0iIHk9Ii0wLjFlbSIgeD0iMCIgY2xhc3M9InRleHQtb3V0ZXItdHNwYW4iPjwvdHNwYW4+PC90ZXh0PjwvZz48L2c+PGcgY2xhc3M9ImVkZ2VMYWJlbCI+PGcgdHJhbnNmb3JtPSJ0cmFuc2xhdGUoMCwgMCkiIGNsYXNzPSJsYWJlbCI+PHRleHQgeT0iLTEwLjEiPjx0c3BhbiBkeT0iMS4xZW0iIHk9Ii0wLjFlbSIgeD0iMCIgY2xhc3M9InRleHQtb3V0ZXItdHNwYW4iPjwvdHNwYW4+PC90ZXh0PjwvZz48L2c+PGcgdHJhbnNmb3JtPSJ0cmFuc2xhdGUoMTExNC44NjUyMzQzNzUsIDM4MjMuNDY4NzUpIiBjbGFzcz0iZWRnZUxhYmVsIj48ZyB0cmFuc2Zvcm09InRyYW5zbGF0ZSgtMTQuMDg1OTM3NSwgLTExLjUpIiBjbGFzcz0ibGFiZWwiPjxnPjxyZWN0IGhlaWdodD0iMjMiIHdpZHRoPSIyOC4xNzE4NzUiIHk9Ii0xIiB4PSItMyIgc3R5bGU9IiIgY2xhc3M9ImJhY2tncm91bmQiPjwvcmVjdD48dGV4dCBzdHlsZT0iIiB5PSItMTAuMSI+PHRzcGFuIGR5PSIxLjFlbSIgeT0iLTAuMWVtIiB4PSIwIiBjbGFzcz0idGV4dC1vdXRlci10c3BhbiI+PHRzcGFuIGZvbnQtd2VpZ2h0PSJub3JtYWwiIGNsYXNzPSJ0ZXh0LWlubmVyLXRzcGFuIiBmb250LXN0eWxlPSJub3JtYWwiPlllczwvdHNwYW4+PC90c3Bhbj48L3RleHQ+PC9nPjwvZz48L2c+PGcgY2xhc3M9ImVkZ2VMYWJlbCI+PGcgdHJhbnNmb3JtPSJ0cmFuc2xhdGUoMCwgMCkiIGNsYXNzPSJsYWJlbCI+PHRleHQgeT0iLTEwLjEiPjx0c3BhbiBkeT0iMS4xZW0iIHk9Ii0wLjFlbSIgeD0iMCIgY2xhc3M9InRleHQtb3V0ZXItdHNwYW4iPjwvdHNwYW4+PC90ZXh0PjwvZz48L2c+PGcgdHJhbnNmb3JtPSJ0cmFuc2xhdGUoMTE5MC4xMDkzNzUsIDMzMjEuNTM5MDYyNSkiIGNsYXNzPSJlZGdlTGFiZWwiPjxnIHRyYW5zZm9ybT0idHJhbnNsYXRlKC0xMS42MDU0Njg3NSwgLTExLjUpIiBjbGFzcz0ibGFiZWwiPjxnPjxyZWN0IGhlaWdodD0iMjMiIHdpZHRoPSIyMy4yMTA5Mzc1IiB5PSItMSIgeD0iLTIiIHN0eWxlPSIiIGNsYXNzPSJiYWNrZ3JvdW5kIj48L3JlY3Q+PHRleHQgc3R5bGU9IiIgeT0iLTEwLjEiPjx0c3BhbiBkeT0iMS4xZW0iIHk9Ii0wLjFlbSIgeD0iMCIgY2xhc3M9InRleHQtb3V0ZXItdHNwYW4iPjx0c3BhbiBmb250LXdlaWdodD0ibm9ybWFsIiBjbGFzcz0idGV4dC1pbm5lci10c3BhbiIgZm9udC1zdHlsZT0ibm9ybWFsIj5ObzwvdHNwYW4+PC90c3Bhbj48L3RleHQ+PC9nPjwvZz48L2c+PC9nPjxnIGNsYXNzPSJub2RlcyI+PGcgdHJhbnNmb3JtPSJ0cmFuc2xhdGUoNTQ1LjgyODEyNSwgNDcpIiBpZD0iZmxvd2NoYXJ0LUEtMCIgY2xhc3M9Im5vZGUgZGVmYXVsdCI+PHJlY3QgaGVpZ2h0PSI3OCIgd2lkdGg9IjI2MCIgeT0iLTM5IiB4PSItMTMwIiBzdHlsZT0iIiBjbGFzcz0iYmFzaWMgbGFiZWwtY29udGFpbmVyIj48L3JlY3Q+PGcgdHJhbnNmb3JtPSJ0cmFuc2xhdGUoLTEwMCwgLTI0KSIgc3R5bGU9IiIgY2xhc3M9ImxhYmVsIj48cmVjdD48L3JlY3Q+PGZvcmVpZ25PYmplY3QgaGVpZ2h0PSI0OCIgd2lkdGg9IjIwMCI+PGRpdiBzdHlsZT0iZGlzcGxheTogdGFibGU7IHdoaXRlLXNwYWNlOiBicmVhay1zcGFjZXM7IGxpbmUtaGVpZ2h0OiAxLjU7IG1heC13aWR0aDogMjAwcHg7IHRleHQtYWxpZ246IGNlbnRlcjsgd2lkdGg6IDIwMHB4OyIgeG1sbnM9Imh0dHA6Ly93d3cudzMub3JnLzE5OTkveGh0bWwiPjxzcGFuIGNsYXNzPSJub2RlTGFiZWwiPjxwPlN0YXJ0IEV4ZWN1dGVFbGV2YXRvckNvbW1hbmRzPC9wPjwvc3Bhbj48L2Rpdj48L2ZvcmVpZ25PYmplY3Q+PC9nPjwvZz48ZyB0cmFuc2Zvcm09InRyYW5zbGF0ZSg1NDUuODI4MTI1LCAyNzUpIiBpZD0iZmxvd2NoYXJ0LUItMSIgY2xhc3M9Im5vZGUgZGVmYXVsdCI+PHBvbHlnb24gdHJhbnNmb3JtPSJ0cmFuc2xhdGUoLTEzOSwxMzkpIiBjbGFzcz0ibGFiZWwtY29udGFpbmVyIiBwb2ludHM9IjEzOSwwIDI3OCwtMTM5IDEzOSwtMjc4IDAsLTEzOSI+PC9wb2x5Z29uPjxnIHRyYW5zZm9ybT0idHJhbnNsYXRlKC0xMDAsIC0yNCkiIHN0eWxlPSIiIGNsYXNzPSJsYWJlbCI+PHJlY3Q+PC9yZWN0Pjxmb3JlaWduT2JqZWN0IGhlaWdodD0iNDgiIHdpZHRoPSIyMDAiPjxkaXYgc3R5bGU9ImRpc3BsYXk6IHRhYmxlOyB3aGl0ZS1zcGFjZTogYnJlYWstc3BhY2VzOyBsaW5lLWhlaWdodDogMS41OyBtYXgtd2lkdGg6IDIwMHB4OyB0ZXh0LWFsaWduOiBjZW50ZXI7IHdpZHRoOiAyMDBweDsiIHhtbG5zPSJodHRwOi8vd3d3LnczLm9yZy8xOTk5L3hodG1sIj48c3BhbiBjbGFzcz0ibm9kZUxhYmVsIj48cD5Gb3IgZWFjaCBlbGV2YXRvciBpbiBFbGV2YXRvcnM8L3A+PC9zcGFuPjwvZGl2PjwvZm9yZWlnbk9iamVjdD48L2c+PC9nPjxnIHRyYW5zZm9ybT0idHJhbnNsYXRlKDU0NS44MjgxMjUsIDYwMykiIGlkPSJmbG93Y2hhcnQtQy0zIiBjbGFzcz0ibm9kZSBkZWZhdWx0Ij48cG9seWdvbiB0cmFuc2Zvcm09InRyYW5zbGF0ZSgtMTM5LDEzOSkiIGNsYXNzPSJsYWJlbC1jb250YWluZXIiIHBvaW50cz0iMTM5LDAgMjc4LC0xMzkgMTM5LC0yNzggMCwtMTM5Ij48L3BvbHlnb24+PGcgdHJhbnNmb3JtPSJ0cmFuc2xhdGUoLTEwMCwgLTI0KSIgc3R5bGU9IiIgY2xhc3M9ImxhYmVsIj48cmVjdD48L3JlY3Q+PGZvcmVpZ25PYmplY3QgaGVpZ2h0PSI0OCIgd2lkdGg9IjIwMCI+PGRpdiBzdHlsZT0iZGlzcGxheTogdGFibGU7IHdoaXRlLXNwYWNlOiBicmVhay1zcGFjZXM7IGxpbmUtaGVpZ2h0OiAxLjU7IG1heC13aWR0aDogMjAwcHg7IHRleHQtYWxpZ246IGNlbnRlcjsgd2lkdGg6IDIwMHB4OyIgeG1sbnM9Imh0dHA6Ly93d3cudzMub3JnLzE5OTkveGh0bWwiPjxzcGFuIGNsYXNzPSJub2RlTGFiZWwiPjxwPkVsZXZhdG9yIGhhcyBtZWNoYW5pY2FsIGlzc3VlPzwvcD48L3NwYW4+PC9kaXY+PC9mb3JlaWduT2JqZWN0PjwvZz48L2c+PGcgdHJhbnNmb3JtPSJ0cmFuc2xhdGUoNDI4LjIzODI4MTI1LCA0MzM0LjgyODEyNSkiIGlkPSJmbG93Y2hhcnQtRC01IiBjbGFzcz0ibm9kZSBkZWZhdWx0Ij48cmVjdCBoZWlnaHQ9IjU0IiB3aWR0aD0iMjIzLjQ1MzEyNSIgeT0iLTI3IiB4PSItMTExLjcyNjU2MjUiIHN0eWxlPSIiIGNsYXNzPSJiYXNpYyBsYWJlbC1jb250YWluZXIiPjwvcmVjdD48ZyB0cmFuc2Zvcm09InRyYW5zbGF0ZSgtODEuNzI2NTYyNSwgLTEyKSIgc3R5bGU9IiIgY2xhc3M9ImxhYmVsIj48cmVjdD48L3JlY3Q+PGZvcmVpZ25PYmplY3QgaGVpZ2h0PSIyNCIgd2lkdGg9IjE2My40NTMxMjUiPjxkaXYgc3R5bGU9ImRpc3BsYXk6IHRhYmxlLWNlbGw7IHdoaXRlLXNwYWNlOiBub3dyYXA7IGxpbmUtaGVpZ2h0OiAxLjU7IG1heC13aWR0aDogMjAwcHg7IHRleHQtYWxpZ246IGNlbnRlcjsiIHhtbG5zPSJodHRwOi8vd3d3LnczLm9yZy8xOTk5L3hodG1sIj48c3BhbiBjbGFzcz0ibm9kZUxhYmVsIj48cD5Mb2cgYW5kIENvbnRpbnVlIExvb3A8L3A+PC9zcGFuPjwvZGl2PjwvZm9yZWlnbk9iamVjdD48L2c+PC9nPjxnIHRyYW5zZm9ybT0idHJhbnNsYXRlKDYyMy4wMDc4MTI1LCA5MDIuMzM1OTM3NSkiIGlkPSJmbG93Y2hhcnQtRS03IiBjbGFzcz0ibm9kZSBkZWZhdWx0Ij48cG9seWdvbiB0cmFuc2Zvcm09InRyYW5zbGF0ZSgtODcuMzM1OTM3NSw4Ny4zMzU5Mzc1KSIgY2xhc3M9ImxhYmVsLWNvbnRhaW5lciIgcG9pbnRzPSI4Ny4zMzU5Mzc1LDAgMTc0LjY3MTg3NSwtODcuMzM1OTM3NSA4Ny4zMzU5Mzc1LC0xNzQuNjcxODc1IDAsLTg3LjMzNTkzNzUiPjwvcG9seWdvbj48ZyB0cmFuc2Zvcm09InRyYW5zbGF0ZSgtNjAuMzM1OTM3NSwgLTEyKSIgc3R5bGU9IiIgY2xhc3M9ImxhYmVsIj48cmVjdD48L3JlY3Q+PGZvcmVpZ25PYmplY3QgaGVpZ2h0PSIyNCIgd2lkdGg9IjEyMC42NzE4NzUiPjxkaXYgc3R5bGU9ImRpc3BsYXk6IHRhYmxlLWNlbGw7IHdoaXRlLXNwYWNlOiBub3dyYXA7IGxpbmUtaGVpZ2h0OiAxLjU7IG1heC13aWR0aDogMjAwcHg7IHRleHQtYWxpZ246IGNlbnRlcjsiIHhtbG5zPSJodHRwOi8vd3d3LnczLm9yZy8xOTk5L3hodG1sIj48c3BhbiBjbGFzcz0ibm9kZUxhYmVsIj48cD5GaXJlQWxhcm1BY3RpdmU/PC9wPjwvc3Bhbj48L2Rpdj48L2ZvcmVpZ25PYmplY3Q+PC9nPjwvZz48ZyB0cmFuc2Zvcm09InRyYW5zbGF0ZSgxNzYuNDQ1MzEyNSwgNDIxOC44MjgxMjUpIiBpZD0iZmxvd2NoYXJ0LUYtOSIgY2xhc3M9Im5vZGUgZGVmYXVsdCI+PHJlY3QgaGVpZ2h0PSI1NCIgd2lkdGg9IjIzOC43MTg3NSIgeT0iLTI3IiB4PSItMTE5LjM1OTM3NSIgc3R5bGU9IiIgY2xhc3M9ImJhc2ljIGxhYmVsLWNvbnRhaW5lciI+PC9yZWN0PjxnIHRyYW5zZm9ybT0idHJhbnNsYXRlKC04OS4zNTkzNzUsIC0xMikiIHN0eWxlPSIiIGNsYXNzPSJsYWJlbCI+PHJlY3Q+PC9yZWN0Pjxmb3JlaWduT2JqZWN0IGhlaWdodD0iMjQiIHdpZHRoPSIxNzguNzE4NzUiPjxkaXYgc3R5bGU9ImRpc3BsYXk6IHRhYmxlLWNlbGw7IHdoaXRlLXNwYWNlOiBub3dyYXA7IGxpbmUtaGVpZ2h0OiAxLjU7IG1heC13aWR0aDogMjAwcHg7IHRleHQtYWxpZ246IGNlbnRlcjsiIHhtbG5zPSJodHRwOi8vd3d3LnczLm9yZy8xOTk5L3hodG1sIj48c3BhbiBjbGFzcz0ibm9kZUxhYmVsIj48cD5DYWxsIEFwcGx5RmlyZUFsYXJtUnVsZXM8L3A+PC9zcGFuPjwvZGl2PjwvZm9yZWlnbk9iamVjdD48L2c+PC9nPjxnIHRyYW5zZm9ybT0idHJhbnNsYXRlKDcxNi4wMDc4MTI1LCAxMjEzLjY3MTg3NSkiIGlkPSJmbG93Y2hhcnQtRy0xMyIgY2xhc3M9Im5vZGUgZGVmYXVsdCI+PHBvbHlnb24gdHJhbnNmb3JtPSJ0cmFuc2xhdGUoLTE1MSwxNTEpIiBjbGFzcz0ibGFiZWwtY29udGFpbmVyIiBwb2ludHM9IjE1MSwwIDMwMiwtMTUxIDE1MSwtMzAyIDAsLTE1MSI+PC9wb2x5Z29uPjxnIHRyYW5zZm9ybT0idHJhbnNsYXRlKC0xMDAsIC0zNikiIHN0eWxlPSIiIGNsYXNzPSJsYWJlbCI+PHJlY3Q+PC9yZWN0Pjxmb3JlaWduT2JqZWN0IGhlaWdodD0iNzIiIHdpZHRoPSIyMDAiPjxkaXYgc3R5bGU9ImRpc3BsYXk6IHRhYmxlOyB3aGl0ZS1zcGFjZTogYnJlYWstc3BhY2VzOyBsaW5lLWhlaWdodDogMS41OyBtYXgtd2lkdGg6IDIwMHB4OyB0ZXh0LWFsaWduOiBjZW50ZXI7IHdpZHRoOiAyMDBweDsiIHhtbG5zPSJodHRwOi8vd3d3LnczLm9yZy8xOTk5L3hodG1sIj48c3BhbiBjbGFzcz0ibm9kZUxhYmVsIj48cD5FbGV2YXRvciBpcyBTZXJ2aWNlICZhbXA7JmFtcDsgVGltZS1iYXNlZCBmZWF0dXJlIGVuYWJsZWQ/PC9wPjwvc3Bhbj48L2Rpdj48L2ZvcmVpZ25PYmplY3Q+PC9nPjwvZz48ZyB0cmFuc2Zvcm09InRyYW5zbGF0ZSgzNjIuNDI3NzM0Mzc1LCAxNTc5LjU5Mzc1KSIgaWQ9ImZsb3djaGFydC1ILTE1IiBjbGFzcz0ibm9kZSBkZWZhdWx0Ij48cG9seWdvbiB0cmFuc2Zvcm09InRyYW5zbGF0ZSgtMTQxLjkyMTg3NSwxNDEuOTIxODc1KSIgY2xhc3M9ImxhYmVsLWNvbnRhaW5lciIgcG9pbnRzPSIxNDEuOTIxODc1LDAgMjgzLjg0Mzc1LC0xNDEuOTIxODc1IDE0MS45MjE4NzUsLTI4My44NDM3NSAwLC0xNDEuOTIxODc1Ij48L3BvbHlnb24+PGcgdHJhbnNmb3JtPSJ0cmFuc2xhdGUoLTEwMi45MjE4NzUsIC0yNCkiIHN0eWxlPSIiIGNsYXNzPSJsYWJlbCI+PHJlY3Q+PC9yZWN0Pjxmb3JlaWduT2JqZWN0IGhlaWdodD0iNDgiIHdpZHRoPSIyMDUuODQzNzUiPjxkaXYgc3R5bGU9ImRpc3BsYXk6IHRhYmxlOyB3aGl0ZS1zcGFjZTogYnJlYWstc3BhY2VzOyBsaW5lLWhlaWdodDogMS41OyBtYXgtd2lkdGg6IDIwMHB4OyB0ZXh0LWFsaWduOiBjZW50ZXI7IHdpZHRoOiAyMDBweDsiIHhtbG5zPSJodHRwOi8vd3d3LnczLm9yZy8xOTk5L3hodG1sIj48c3BhbiBjbGFzcz0ibm9kZUxhYmVsIj48cD5DYWxsIEFwcGx5VGltZUJhc2VkU2VydmljZVJ1bGVzPC9wPjwvc3Bhbj48L2Rpdj48L2ZvcmVpZ25PYmplY3Q+PC9nPjwvZz48ZyB0cmFuc2Zvcm09InRyYW5zbGF0ZSgzNjIuNDI3NzM0Mzc1LCAxODk1LjEwMTU2MjUpIiBpZD0iZmxvd2NoYXJ0LUktMTciIGNsYXNzPSJub2RlIGRlZmF1bHQiPjxwb2x5Z29uIHRyYW5zZm9ybT0idHJhbnNsYXRlKC0xMDAuNTg1OTM3NSwxMDAuNTg1OTM3NSkiIGNsYXNzPSJsYWJlbC1jb250YWluZXIiIHBvaW50cz0iMTAwLjU4NTkzNzUsMCAyMDEuMTcxODc1LC0xMDAuNTg1OTM3NSAxMDAuNTg1OTM3NSwtMjAxLjE3MTg3NSAwLC0xMDAuNTg1OTM3NSI+PC9wb2x5Z29uPjxnIHRyYW5zZm9ybT0idHJhbnNsYXRlKC03My41ODU5Mzc1LCAtMTIpIiBzdHlsZT0iIiBjbGFzcz0ibGFiZWwiPjxyZWN0PjwvcmVjdD48Zm9yZWlnbk9iamVjdCBoZWlnaHQ9IjI0IiB3aWR0aD0iMTQ3LjE3MTg3NSI+PGRpdiBzdHlsZT0iZGlzcGxheTogdGFibGUtY2VsbDsgd2hpdGUtc3BhY2U6IG5vd3JhcDsgbGluZS1oZWlnaHQ6IDEuNTsgbWF4LXdpZHRoOiAyMDBweDsgdGV4dC1hbGlnbjogY2VudGVyOyIgeG1sbnM9Imh0dHA6Ly93d3cudzMub3JnLzE5OTkveGh0bWwiPjxzcGFuIGNsYXNzPSJub2RlTGFiZWwiPjxwPkZsb3dDb250cm9sIGlzIGZhbHNlPzwvcD48L3NwYW4+PC9kaXY+PC9mb3JlaWduT2JqZWN0PjwvZz48L2c+PGcgdHJhbnNmb3JtPSJ0cmFuc2xhdGUoMTAzNC4yMzQzNzUsIDIwOTUuNjg3NSkiIGlkPSJmbG93Y2hhcnQtSi0yMSIgY2xhc3M9Im5vZGUgZGVmYXVsdCI+PHJlY3QgaGVpZ2h0PSI1NCIgd2lkdGg9IjEyNC4wMTU2MjUiIHk9Ii0yNyIgeD0iLTYyLjAwNzgxMjUiIHN0eWxlPSIiIGNsYXNzPSJiYXNpYyBsYWJlbC1jb250YWluZXIiPjwvcmVjdD48ZyB0cmFuc2Zvcm09InRyYW5zbGF0ZSgtMzIuMDA3ODEyNSwgLTEyKSIgc3R5bGU9IiIgY2xhc3M9ImxhYmVsIj48cmVjdD48L3JlY3Q+PGZvcmVpZ25PYmplY3QgaGVpZ2h0PSIyNCIgd2lkdGg9IjY0LjAxNTYyNSI+PGRpdiBzdHlsZT0iZGlzcGxheTogdGFibGUtY2VsbDsgd2hpdGUtc3BhY2U6IG5vd3JhcDsgbGluZS1oZWlnaHQ6IDEuNTsgbWF4LXdpZHRoOiAyMDBweDsgdGV4dC1hbGlnbjogY2VudGVyOyIgeG1sbnM9Imh0dHA6Ly93d3cudzMub3JnLzE5OTkveGh0bWwiPjxzcGFuIGNsYXNzPSJub2RlTGFiZWwiPjxwPkNvbnRpbnVlPC9wPjwvc3Bhbj48L2Rpdj48L2ZvcmVpZ25PYmplY3Q+PC9nPjwvZz48ZyB0cmFuc2Zvcm09InRyYW5zbGF0ZSgxMDM0LjIzNDM3NSwgMjI3NS4zOTg0Mzc1KSIgaWQ9ImZsb3djaGFydC1LLTI1IiBjbGFzcz0ibm9kZSBkZWZhdWx0Ij48cG9seWdvbiB0cmFuc2Zvcm09InRyYW5zbGF0ZSgtMTAyLjcxMDkzNzUsMTAyLjcxMDkzNzUpIiBjbGFzcz0ibGFiZWwtY29udGFpbmVyIiBwb2ludHM9IjEwMi43MTA5Mzc1LDAgMjA1LjQyMTg3NSwtMTAyLjcxMDkzNzUgMTAyLjcxMDkzNzUsLTIwNS40MjE4NzUgMCwtMTAyLjcxMDkzNzUiPjwvcG9seWdvbj48ZyB0cmFuc2Zvcm09InRyYW5zbGF0ZSgtNzUuNzEwOTM3NSwgLTEyKSIgc3R5bGU9IiIgY2xhc3M9ImxhYmVsIj48cmVjdD48L3JlY3Q+PGZvcmVpZ25PYmplY3QgaGVpZ2h0PSIyNCIgd2lkdGg9IjE1MS40MjE4NzUiPjxkaXYgc3R5bGU9ImRpc3BsYXk6IHRhYmxlLWNlbGw7IHdoaXRlLXNwYWNlOiBub3dyYXA7IGxpbmUtaGVpZ2h0OiAxLjU7IG1heC13aWR0aDogMjAwcHg7IHRleHQtYWxpZ246IGNlbnRlcjsiIHhtbG5zPSJodHRwOi8vd3d3LnczLm9yZy8xOTk5L3hodG1sIj48c3BhbiBjbGFzcz0ibm9kZUxhYmVsIj48cD5FbGV2YXRvciBzaG91bGQgc3RvcD88L3A+PC9zcGFuPjwvZGl2PjwvZm9yZWlnbk9iamVjdD48L2c+PC9nPjxnIHRyYW5zZm9ybT0idHJhbnNsYXRlKDUwOS4zMzk4NDM3NSwgMjQ3OC4xMDkzNzUpIiBpZD0iZmxvd2NoYXJ0LUwtMjciIGNsYXNzPSJub2RlIGRlZmF1bHQiPjxyZWN0IGhlaWdodD0iNTQiIHdpZHRoPSIyMzIuODU5Mzc1IiB5PSItMjciIHg9Ii0xMTYuNDI5Njg3NSIgc3R5bGU9IiIgY2xhc3M9ImJhc2ljIGxhYmVsLWNvbnRhaW5lciI+PC9yZWN0PjxnIHRyYW5zZm9ybT0idHJhbnNsYXRlKC04Ni40Mjk2ODc1LCAtMTIpIiBzdHlsZT0iIiBjbGFzcz0ibGFiZWwiPjxyZWN0PjwvcmVjdD48Zm9yZWlnbk9iamVjdCBoZWlnaHQ9IjI0IiB3aWR0aD0iMTcyLjg1OTM3NSI+PGRpdiBzdHlsZT0iZGlzcGxheTogdGFibGUtY2VsbDsgd2hpdGUtc3BhY2U6IG5vd3JhcDsgbGluZS1oZWlnaHQ6IDEuNTsgbWF4LXdpZHRoOiAyMDBweDsgdGV4dC1hbGlnbjogY2VudGVyOyIgeG1sbnM9Imh0dHA6Ly93d3cudzMub3JnLzE5OTkveGh0bWwiPjxzcGFuIGNsYXNzPSJub2RlTGFiZWwiPjxwPkNhbGwgQXBwbHlTdG9wTXVzaWNSdWxlPC9wPjwvc3Bhbj48L2Rpdj48L2ZvcmVpZ25PYmplY3Q+PC9nPjwvZz48ZyB0cmFuc2Zvcm09InRyYW5zbGF0ZSgxMTE0Ljg2NTIzNDM3NSwgMjQ3OC4xMDkzNzUpIiBpZD0iZmxvd2NoYXJ0LU0tMjkiIGNsYXNzPSJub2RlIGRlZmF1bHQiPjxyZWN0IGhlaWdodD0iNTQiIHdpZHRoPSIxMjQuMDE1NjI1IiB5PSItMjciIHg9Ii02Mi4wMDc4MTI1IiBzdHlsZT0iIiBjbGFzcz0iYmFzaWMgbGFiZWwtY29udGFpbmVyIj48L3JlY3Q+PGcgdHJhbnNmb3JtPSJ0cmFuc2xhdGUoLTMyLjAwNzgxMjUsIC0xMikiIHN0eWxlPSIiIGNsYXNzPSJsYWJlbCI+PHJlY3Q+PC9yZWN0Pjxmb3JlaWduT2JqZWN0IGhlaWdodD0iMjQiIHdpZHRoPSI2NC4wMTU2MjUiPjxkaXYgc3R5bGU9ImRpc3BsYXk6IHRhYmxlLWNlbGw7IHdoaXRlLXNwYWNlOiBub3dyYXA7IGxpbmUtaGVpZ2h0OiAxLjU7IG1heC13aWR0aDogMjAwcHg7IHRleHQtYWxpZ246IGNlbnRlcjsiIHhtbG5zPSJodHRwOi8vd3d3LnczLm9yZy8xOTk5L3hodG1sIj48c3BhbiBjbGFzcz0ibm9kZUxhYmVsIj48cD5Db250aW51ZTwvcD48L3NwYW4+PC9kaXY+PC9mb3JlaWduT2JqZWN0PjwvZz48L2c+PGcgdHJhbnNmb3JtPSJ0cmFuc2xhdGUoMTAzNC4yMzQzNzUsIDI2MTcuMTA5Mzc1KSIgaWQ9ImZsb3djaGFydC1OLTMxIiBjbGFzcz0ibm9kZSBkZWZhdWx0Ij48cmVjdCBoZWlnaHQ9Ijc4IiB3aWR0aD0iMjYwIiB5PSItMzkiIHg9Ii0xMzAiIHN0eWxlPSIiIGNsYXNzPSJiYXNpYyBsYWJlbC1jb250YWluZXIiPjwvcmVjdD48ZyB0cmFuc2Zvcm09InRyYW5zbGF0ZSgtMTAwLCAtMjQpIiBzdHlsZT0iIiBjbGFzcz0ibGFiZWwiPjxyZWN0PjwvcmVjdD48Zm9yZWlnbk9iamVjdCBoZWlnaHQ9IjQ4IiB3aWR0aD0iMjAwIj48ZGl2IHN0eWxlPSJkaXNwbGF5OiB0YWJsZTsgd2hpdGUtc3BhY2U6IGJyZWFrLXNwYWNlczsgbGluZS1oZWlnaHQ6IDEuNTsgbWF4LXdpZHRoOiAyMDBweDsgdGV4dC1hbGlnbjogY2VudGVyOyB3aWR0aDogMjAwcHg7IiB4bWxucz0iaHR0cDovL3d3dy53My5vcmcvMTk5OS94aHRtbCI+PHNwYW4gY2xhc3M9Im5vZGVMYWJlbCI+PHA+Q2FsbCBBcHBseUV4aXRQYXNzZW5nZXJzUnVsZXM8L3A+PC9zcGFuPjwvZGl2PjwvZm9yZWlnbk9iamVjdD48L2c+PC9nPjxnIHRyYW5zZm9ybT0idHJhbnNsYXRlKDEwMzQuMjM0Mzc1LCAyNzQ1LjEwOTM3NSkiIGlkPSJmbG93Y2hhcnQtTy0zNSIgY2xhc3M9Im5vZGUgZGVmYXVsdCI+PHJlY3QgaGVpZ2h0PSI3OCIgd2lkdGg9IjI2MCIgeT0iLTM5IiB4PSItMTMwIiBzdHlsZT0iIiBjbGFzcz0iYmFzaWMgbGFiZWwtY29udGFpbmVyIj48L3JlY3Q+PGcgdHJhbnNmb3JtPSJ0cmFuc2xhdGUoLTEwMCwgLTI0KSIgc3R5bGU9IiIgY2xhc3M9ImxhYmVsIj48cmVjdD48L3JlY3Q+PGZvcmVpZ25PYmplY3QgaGVpZ2h0PSI0OCIgd2lkdGg9IjIwMCI+PGRpdiBzdHlsZT0iZGlzcGxheTogdGFibGU7IHdoaXRlLXNwYWNlOiBicmVhay1zcGFjZXM7IGxpbmUtaGVpZ2h0OiAxLjU7IG1heC13aWR0aDogMjAwcHg7IHRleHQtYWxpZ246IGNlbnRlcjsgd2lkdGg6IDIwMHB4OyIgeG1sbnM9Imh0dHA6Ly93d3cudzMub3JnLzE5OTkveGh0bWwiPjxzcGFuIGNsYXNzPSJub2RlTGFiZWwiPjxwPkNhbGwgQXBwbHlFbnRlclBhc3NlbmdlcnNSdWxlczwvcD48L3NwYW4+PC9kaXY+PC9mb3JlaWduT2JqZWN0PjwvZz48L2c+PGcgdHJhbnNmb3JtPSJ0cmFuc2xhdGUoMTAzNC4yMzQzNzUsIDI5OTYuMTA5Mzc1KSIgaWQ9ImZsb3djaGFydC1QLTM3IiBjbGFzcz0ibm9kZSBkZWZhdWx0Ij48cG9seWdvbiB0cmFuc2Zvcm09InRyYW5zbGF0ZSgtMTM5LDEzOSkiIGNsYXNzPSJsYWJlbC1jb250YWluZXIiIHBvaW50cz0iMTM5LDAgMjc4LC0xMzkgMTM5LC0yNzggMCwtMTM5Ij48L3BvbHlnb24+PGcgdHJhbnNmb3JtPSJ0cmFuc2xhdGUoLTEwMCwgLTI0KSIgc3R5bGU9IiIgY2xhc3M9ImxhYmVsIj48cmVjdD48L3JlY3Q+PGZvcmVpZ25PYmplY3QgaGVpZ2h0PSI0OCIgd2lkdGg9IjIwMCI+PGRpdiBzdHlsZT0iZGlzcGxheTogdGFibGU7IHdoaXRlLXNwYWNlOiBicmVhay1zcGFjZXM7IGxpbmUtaGVpZ2h0OiAxLjU7IG1heC13aWR0aDogMjAwcHg7IHRleHQtYWxpZ246IGNlbnRlcjsgd2lkdGg6IDIwMHB4OyIgeG1sbnM9Imh0dHA6Ly93d3cudzMub3JnLzE5OTkveGh0bWwiPjxzcGFuIGNsYXNzPSJub2RlTGFiZWwiPjxwPkhhcyBwYXNzZW5nZXJzIG9yIHN1bW1vbiByZXF1ZXN0cz88L3A+PC9zcGFuPjwvZGl2PjwvZm9yZWlnbk9iamVjdD48L2c+PC9nPjxnIHRyYW5zZm9ybT0idHJhbnNsYXRlKDY2OS4zNTE1NjI1LCAzMzIxLjUzOTA2MjUpIiBpZD0iZmxvd2NoYXJ0LVEtMzkiIGNsYXNzPSJub2RlIGRlZmF1bHQiPjxwb2x5Z29uIHRyYW5zZm9ybT0idHJhbnNsYXRlKC0xMTMuNDI5Njg3NSwxMTMuNDI5Njg3NSkiIGNsYXNzPSJsYWJlbC1jb250YWluZXIiIHBvaW50cz0iMTEzLjQyOTY4NzUsMCAyMjYuODU5Mzc1LC0xMTMuNDI5Njg3NSAxMTMuNDI5Njg3NSwtMjI2Ljg1OTM3NSAwLC0xMTMuNDI5Njg3NSI+PC9wb2x5Z29uPjxnIHRyYW5zZm9ybT0idHJhbnNsYXRlKC04Ni40Mjk2ODc1LCAtMTIpIiBzdHlsZT0iIiBjbGFzcz0ibGFiZWwiPjxyZWN0PjwvcmVjdD48Zm9yZWlnbk9iamVjdCBoZWlnaHQ9IjI0IiB3aWR0aD0iMTcyLjg1OTM3NSI+PGRpdiBzdHlsZT0iZGlzcGxheTogdGFibGUtY2VsbDsgd2hpdGUtc3BhY2U6IG5vd3JhcDsgbGluZS1oZWlnaHQ6IDEuNTsgbWF4LXdpZHRoOiAyMDBweDsgdGV4dC1hbGlnbjogY2VudGVyOyIgeG1sbnM9Imh0dHA6Ly93d3cudzMub3JnLzE5OTkveGh0bWwiPjxzcGFuIGNsYXNzPSJub2RlTGFiZWwiPjxwPkNhbGwgQXBwbHlTdG9wTXVzaWNSdWxlPC9wPjwvc3Bhbj48L2Rpdj48L2ZvcmVpZ25PYmplY3Q+PC9nPjwvZz48ZyB0cmFuc2Zvcm09InRyYW5zbGF0ZSgxMDM5LjYyMTA5Mzc1LCAzMzIxLjUzOTA2MjUpIiBpZD0iZmxvd2NoYXJ0LVItNDEiIGNsYXNzPSJub2RlIGRlZmF1bHQiPjxyZWN0IGhlaWdodD0iNTQiIHdpZHRoPSIyMDcuNzY1NjI1IiB5PSItMjciIHg9Ii0xMDMuODgyODEyNSIgc3R5bGU9IiIgY2xhc3M9ImJhc2ljIGxhYmVsLWNvbnRhaW5lciI+PC9yZWN0PjxnIHRyYW5zZm9ybT0idHJhbnNsYXRlKC03My44ODI4MTI1LCAtMTIpIiBzdHlsZT0iIiBjbGFzcz0ibGFiZWwiPjxyZWN0PjwvcmVjdD48Zm9yZWlnbk9iamVjdCBoZWlnaHQ9IjI0IiB3aWR0aD0iMTQ3Ljc2NTYyNSI+PGRpdiBzdHlsZT0iZGlzcGxheTogdGFibGUtY2VsbDsgd2hpdGUtc3BhY2U6IG5vd3JhcDsgbGluZS1oZWlnaHQ6IDEuNTsgbWF4LXdpZHRoOiAyMDBweDsgdGV4dC1hbGlnbjogY2VudGVyOyIgeG1sbnM9Imh0dHA6Ly93d3cudzMub3JnLzE5OTkveGh0bWwiPjxzcGFuIGNsYXNzPSJub2RlTGFiZWwiPjxwPkdldCBuZXh0IGRlc3RpbmF0aW9uPC9wPjwvc3Bhbj48L2Rpdj48L2ZvcmVpZ25PYmplY3Q+PC9nPjwvZz48ZyB0cmFuc2Zvcm09InRyYW5zbGF0ZSg2NjkuMzUxNTYyNSwgMzYzNS45Njg3NSkiIGlkPSJmbG93Y2hhcnQtUy00MyIgY2xhc3M9Im5vZGUgZGVmYXVsdCI+PHJlY3QgaGVpZ2h0PSI1NCIgd2lkdGg9IjIwNC45MjE4NzUiIHk9Ii0yNyIgeD0iLTEwMi40NjA5Mzc1IiBzdHlsZT0iIiBjbGFzcz0iYmFzaWMgbGFiZWwtY29udGFpbmVyIj48L3JlY3Q+PGcgdHJhbnNmb3JtPSJ0cmFuc2xhdGUoLTcyLjQ2MDkzNzUsIC0xMikiIHN0eWxlPSIiIGNsYXNzPSJsYWJlbCI+PHJlY3Q+PC9yZWN0Pjxmb3JlaWduT2JqZWN0IGhlaWdodD0iMjQiIHdpZHRoPSIxNDQuOTIxODc1Ij48ZGl2IHN0eWxlPSJkaXNwbGF5OiB0YWJsZS1jZWxsOyB3aGl0ZS1zcGFjZTogbm93cmFwOyBsaW5lLWhlaWdodDogMS41OyBtYXgtd2lkdGg6IDIwMHB4OyB0ZXh0LWFsaWduOiBjZW50ZXI7IiB4bWxucz0iaHR0cDovL3d3dy53My5vcmcvMTk5OS94aHRtbCI+PHNwYW4gY2xhc3M9Im5vZGVMYWJlbCI+PHA+R2V0IGFjdGl2ZSBzdW1tb25zPC9wPjwvc3Bhbj48L2Rpdj48L2ZvcmVpZ25PYmplY3Q+PC9nPjwvZz48ZyB0cmFuc2Zvcm09InRyYW5zbGF0ZSg2NjkuMzUxNTYyNSwgMzk4My4zOTg0Mzc1KSIgaWQ9ImZsb3djaGFydC1ULTQ1IiBjbGFzcz0ibm9kZSBkZWZhdWx0Ij48cG9seWdvbiB0cmFuc2Zvcm09InRyYW5zbGF0ZSgtMTIzLjQyOTY4NzUsMTIzLjQyOTY4NzUpIiBjbGFzcz0ibGFiZWwtY29udGFpbmVyIiBwb2ludHM9IjEyMy40Mjk2ODc1LDAgMjQ2Ljg1OTM3NSwtMTIzLjQyOTY4NzUgMTIzLjQyOTY4NzUsLTI0Ni44NTkzNzUgMCwtMTIzLjQyOTY4NzUiPjwvcG9seWdvbj48ZyB0cmFuc2Zvcm09InRyYW5zbGF0ZSgtOTYuNDI5Njg3NSwgLTEyKSIgc3R5bGU9IiIgY2xhc3M9ImxhYmVsIj48cmVjdD48L3JlY3Q+PGZvcmVpZ25PYmplY3QgaGVpZ2h0PSIyNCIgd2lkdGg9IjE5Mi44NTkzNzUiPjxkaXYgc3R5bGU9ImRpc3BsYXk6IHRhYmxlLWNlbGw7IHdoaXRlLXNwYWNlOiBub3dyYXA7IGxpbmUtaGVpZ2h0OiAxLjU7IG1heC13aWR0aDogMjAwcHg7IHRleHQtYWxpZ246IGNlbnRlcjsiIHhtbG5zPSJodHRwOi8vd3d3LnczLm9yZy8xOTk5L3hodG1sIj48c3BhbiBjbGFzcz0ibm9kZUxhYmVsIj48cD5BcmUgdGhlcmUgYWN0aXZlIHN1bW1vbnM/PC9wPjwvc3Bhbj48L2Rpdj48L2ZvcmVpZ25PYmplY3Q+PC9nPjwvZz48ZyB0cmFuc2Zvcm09InRyYW5zbGF0ZSg1MDkuODUxNTYyNSwgNDIxOC44MjgxMjUpIiBpZD0iZmxvd2NoYXJ0LVUtNDciIGNsYXNzPSJub2RlIGRlZmF1bHQiPjxyZWN0IGhlaWdodD0iNTQiIHdpZHRoPSIyNTYuNDUzMTI1IiB5PSItMjciIHg9Ii0xMjguMjI2NTYyNSIgc3R5bGU9IiIgY2xhc3M9ImJhc2ljIGxhYmVsLWNvbnRhaW5lciI+PC9yZWN0PjxnIHRyYW5zZm9ybT0idHJhbnNsYXRlKC05OC4yMjY1NjI1LCAtMTIpIiBzdHlsZT0iIiBjbGFzcz0ibGFiZWwiPjxyZWN0PjwvcmVjdD48Zm9yZWlnbk9iamVjdCBoZWlnaHQ9IjI0IiB3aWR0aD0iMTk2LjQ1MzEyNSI+PGRpdiBzdHlsZT0iZGlzcGxheTogdGFibGUtY2VsbDsgd2hpdGUtc3BhY2U6IG5vd3JhcDsgbGluZS1oZWlnaHQ6IDEuNTsgbWF4LXdpZHRoOiAyMDBweDsgdGV4dC1hbGlnbjogY2VudGVyOyIgeG1sbnM9Imh0dHA6Ly93d3cudzMub3JnLzE5OTkveGh0bWwiPjxzcGFuIGNsYXNzPSJub2RlTGFiZWwiPjxwPkNhbGwgUHJvY2Vzc0FjdGl2ZVN1bW1vbnM8L3A+PC9zcGFuPjwvZGl2PjwvZm9yZWlnbk9iamVjdD48L2c+PC9nPjxnIHRyYW5zZm9ybT0idHJhbnNsYXRlKDgxOC4wNzgxMjUsIDQyMTguODI4MTI1KSIgaWQ9ImZsb3djaGFydC1WLTQ5IiBjbGFzcz0ibm9kZSBkZWZhdWx0Ij48cmVjdCBoZWlnaHQ9Ijc4IiB3aWR0aD0iMjYwIiB5PSItMzkiIHg9Ii0xMzAiIHN0eWxlPSIiIGNsYXNzPSJiYXNpYyBsYWJlbC1jb250YWluZXIiPjwvcmVjdD48ZyB0cmFuc2Zvcm09InRyYW5zbGF0ZSgtMTAwLCAtMjQpIiBzdHlsZT0iIiBjbGFzcz0ibGFiZWwiPjxyZWN0PjwvcmVjdD48Zm9yZWlnbk9iamVjdCBoZWlnaHQ9IjQ4IiB3aWR0aD0iMjAwIj48ZGl2IHN0eWxlPSJkaXNwbGF5OiB0YWJsZTsgd2hpdGUtc3BhY2U6IGJyZWFrLXNwYWNlczsgbGluZS1oZWlnaHQ6IDEuNTsgbWF4LXdpZHRoOiAyMDBweDsgdGV4dC1hbGlnbjogY2VudGVyOyB3aWR0aDogMjAwcHg7IiB4bWxucz0iaHR0cDovL3d3dy53My5vcmcvMTk5OS94aHRtbCI+PHNwYW4gY2xhc3M9Im5vZGVMYWJlbCI+PHA+U2V0IGVsZXZhdG9yIHRvIElkbGUgYW5kIGNvbnRpbnVlIGxvb3A8L3A+PC9zcGFuPjwvZGl2PjwvZm9yZWlnbk9iamVjdD48L2c+PC9nPjxnIHRyYW5zZm9ybT0idHJhbnNsYXRlKDExMTQuODY1MjM0Mzc1LCAzNjM1Ljk2ODc1KSIgaWQ9ImZsb3djaGFydC1XLTU1IiBjbGFzcz0ibm9kZSBkZWZhdWx0Ij48cG9seWdvbiB0cmFuc2Zvcm09InRyYW5zbGF0ZSgtMTUxLDE1MSkiIGNsYXNzPSJsYWJlbC1jb250YWluZXIiIHBvaW50cz0iMTUxLDAgMzAyLC0xNTEgMTUxLC0zMDIgMCwtMTUxIj48L3BvbHlnb24+PGcgdHJhbnNmb3JtPSJ0cmFuc2xhdGUoLTEwMCwgLTM2KSIgc3R5bGU9IiIgY2xhc3M9ImxhYmVsIj48cmVjdD48L3JlY3Q+PGZvcmVpZ25PYmplY3QgaGVpZ2h0PSI3MiIgd2lkdGg9IjIwMCI+PGRpdiBzdHlsZT0iZGlzcGxheTogdGFibGU7IHdoaXRlLXNwYWNlOiBicmVhay1zcGFjZXM7IGxpbmUtaGVpZ2h0OiAxLjU7IG1heC13aWR0aDogMjAwcHg7IHRleHQtYWxpZ246IGNlbnRlcjsgd2lkdGg6IDIwMHB4OyIgeG1sbnM9Imh0dHA6Ly93d3cudzMub3JnLzE5OTkveGh0bWwiPjxzcGFuIGNsYXNzPSJub2RlTGFiZWwiPjxwPklzIG5leHQgZGVzdGluYXRpb24gZGlmZmVyZW50IGZyb20gY3VycmVudCBmbG9vcj88L3A+PC9zcGFuPjwvZGl2PjwvZm9yZWlnbk9iamVjdD48L2c+PC9nPjxnIHRyYW5zZm9ybT0idHJhbnNsYXRlKDExMTQuODY1MjM0Mzc1LCAzOTgzLjM5ODQzNzUpIiBpZD0iZmxvd2NoYXJ0LVgtNTciIGNsYXNzPSJub2RlIGRlZmF1bHQiPjxyZWN0IGhlaWdodD0iNzgiIHdpZHRoPSIyNjAiIHk9Ii0zOSIgeD0iLTEzMCIgc3R5bGU9IiIgY2xhc3M9ImJhc2ljIGxhYmVsLWNvbnRhaW5lciI+PC9yZWN0PjxnIHRyYW5zZm9ybT0idHJhbnNsYXRlKC0xMDAsIC0yNCkiIHN0eWxlPSIiIGNsYXNzPSJsYWJlbCI+PHJlY3Q+PC9yZWN0Pjxmb3JlaWduT2JqZWN0IGhlaWdodD0iNDgiIHdpZHRoPSIyMDAiPjxkaXYgc3R5bGU9ImRpc3BsYXk6IHRhYmxlOyB3aGl0ZS1zcGFjZTogYnJlYWstc3BhY2VzOyBsaW5lLWhlaWdodDogMS41OyBtYXgtd2lkdGg6IDIwMHB4OyB0ZXh0LWFsaWduOiBjZW50ZXI7IHdpZHRoOiAyMDBweDsiIHhtbG5zPSJodHRwOi8vd3d3LnczLm9yZy8xOTk5L3hodG1sIj48c3BhbiBjbGFzcz0ibm9kZUxhYmVsIj48cD5EZXRlcm1pbmUgZGlyZWN0aW9uIGFuZCBtb3ZlIGVsZXZhdG9yPC9wPjwvc3Bhbj48L2Rpdj48L2ZvcmVpZ25PYmplY3Q+PC9nPjwvZz48L2c+PC9nPjwvZz48L3N2Zz4=;" parent="1" vertex="1">
            <mxGeometry x="-170" y="-1510" width="1276.865234375" height="4369.828125" as="geometry" />
          </mxCell>
        </UserObject>
      </root>
    </mxGraphModel>
  </diagram>
</mxfile>
